<svg width="600" xmlns="http://www.w3.org/2000/svg" height="530" id="screenshot-9f13e722-fdbb-805e-8007-05c456c4faf5" viewBox="681 -97941 600 530" style="-webkit-print-color-adjust::exact" xmlns:xlink="http://www.w3.org/1999/xlink" fill="none" version="1.1">
  <g id="shape-9f13e722-fdbb-805e-8007-05c456c4faf5" style="fill:#000000" width="600" height="530" rx="0" ry="0">
    <g id="shape-9f13e722-fdbb-805e-8007-05c456c5efef" style="display:none">
      <g class="fills" id="fills-9f13e722-fdbb-805e-8007-05c456c5efef">
        <rect rx="0" ry="0" x="681" y="-97941" transform="matrix(1.000000, 0.000000, 0.000000, 1.000000, 0.000000, 0.000000)" width="600" height="530" fill="none" style="fill:none">
        </rect>
      </g>
    </g>
    <g id="shape-9f13e722-fdbb-805e-8007-05c456c6bb2b">
      <g class="fills" id="fills-9f13e722-fdbb-805e-8007-05c456c6bb2b">
        <path d="M816.719970703125,-97896.96875C883.2160034179688,-97847.046875,954.739990234375,-97745.828125,981,-97691.5078125C1007.261962890625,-97745.828125,1078.781982421875,-97847.046875,1145.280029296875,-97896.96875C1193.260009765625,-97932.9921875,1271,-97960.859375,1271,-97872.171875C1271,-97854.4609375,1260.844970703125,-97723.3828125,1254.888916015625,-97702.1015625C1234.18603515625,-97628.1171875,1158.7449951171875,-97609.25,1091.6390380859375,-97620.671875C1208.93896484375,-97600.7109375,1238.779052734375,-97534.578125,1174.3359375,-97468.453125C1051.946044921875,-97342.859375,998.426025390625,-97499.9609375,984.7059936523438,-97540.21875C982.1920166015625,-97547.6015625,981.015625,-97551.046875,980.998291015625,-97548.1171875C980.9808959960938,-97551.046875,979.8045654296875,-97547.6015625,977.2905883789062,-97540.21875C963.5765991210938,-97499.9609375,910.0576171875,-97342.859375,787.6605834960938,-97468.453125C723.2166137695312,-97534.578125,753.0556030273438,-97600.7109375,870.3576049804688,-97620.671875C803.2496337890625,-97609.25,727.8076171875,-97628.125,707.1076049804688,-97702.1015625C701.1513671875,-97723.390625,690.99658203125,-97854.46875,690.99658203125,-97872.171875C690.99658203125,-97960.859375,768.7385864257812,-97932.9921875,816.7166137695312,-97896.96875Z" style="fill:#1185fe">
        </path>
      </g>
    </g>
  </g>
</svg>