<svg width="92" xmlns="http://www.w3.org/2000/svg" height="92" id="screenshot-3e2af91f-c15a-80e4-8003-1b5c5040d3f1" viewBox="334.667 482 92 92" style="-webkit-print-color-adjust::exact" xmlns:xlink="http://www.w3.org/1999/xlink" fill="none" version="1.1">
  <g id="shape-3e2af91f-c15a-80e4-8003-1b5c5040d3f1">
    <g class="frame-container-wrapper">
      <g class="frame-container-blur">
        <g class="frame-container-shadows">
          <g fill="none">
            <g class="fills" id="fills-3e2af91f-c15a-80e4-8003-1b5c5040d3f1">
              <rect rx="0" ry="0" x="334.6666666666668" y="482" width="93" height="92" transform="matrix(1.000000, 0.000000, 0.000000, 1.000000, 0.000000, 0.000000)" class="frame-background">
              </rect>
            </g>
            <g class="frame-children">
              <g id="shape-3e2af91f-c15a-80e4-8003-1b5c5040d3f2" style="display:none">
                <g class="fills" id="fills-3e2af91f-c15a-80e4-8003-1b5c5040d3f2">
                  <rect rx="0" ry="0" x="334.6666666666668" y="482" transform="matrix(1.000000, 0.000000, 0.000000, 1.000000, 0.000000, 0.000000)" width="92" height="92" fill="none" style="fill:none">
                  </rect>
                </g>
              </g>
              <g id="shape-3e2af91f-c15a-80e4-8003-1b5c50412029">
                <g class="fills" id="fills-3e2af91f-c15a-80e4-8003-1b5c50412029">
                  <path d="M397.28314208984375,512.7808837890625C402.6782531738281,520.7623901367188,405.3427429199219,529.7653198242188,404.3466491699219,540.1296997070312C404.3425598144531,540.173583984375,404.3198547363281,540.2138061523438,404.2839660644531,540.2402954101562C400.1983642578125,543.2589111328125,396.2399597167969,545.0908203125,392.3369445800781,546.3057250976562C392.306640625,546.3150024414062,392.2740478515625,546.3145141601562,392.24395751953125,546.30419921875C392.2139587402344,546.2940063476562,392.187744140625,546.2744750976562,392.1691589355469,546.2485961914062C391.2675476074219,544.9862670898438,390.4482421875,543.6553955078125,389.73046875,542.2578735351562C389.6892395019531,542.1754760742188,389.72686767578125,542.076416015625,389.8116455078125,542.0440063476562C391.11285400390625,541.5507202148438,392.35015869140625,540.95947265625,393.5402526855469,540.259521484375C393.6339416503906,540.2042236328125,393.63995361328125,540.0689697265625,393.5533447265625,540.0040893554688C393.3007507324219,539.8154907226562,393.0505676269531,539.6171875,392.8111572265625,539.4188842773438C392.766357421875,539.38232421875,392.7060546875,539.3751220703125,392.6552429199219,539.3997192382812C384.9288635253906,542.9896850585938,376.4649658203125,542.9896850585938,368.6472473144531,539.3997192382812C368.5964660644531,539.3768920898438,368.5361633300781,539.3847045898438,368.4925537109375,539.4207153320312C368.253662109375,539.6190185546875,368.00286865234375,539.8154907226562,367.7526550292969,540.0040893554688C367.6661682128906,540.0689697265625,367.6732482910156,540.2042236328125,367.76763916015625,540.259521484375C368.957763671875,540.9461669921875,370.1949462890625,541.5507202148438,371.4943542480469,542.04638671875C371.57855224609375,542.0787963867188,371.6185607910156,542.1754760742188,371.5767517089844,542.2578735351562C370.8745422363281,543.6572265625,370.0552673339844,544.9880981445312,369.1368408203125,546.2503662109375C369.09686279296875,546.301513671875,369.0311584472656,546.3248901367188,368.96905517578125,546.3057250976562C365.08465576171875,545.0908203125,361.1262512207031,543.2589111328125,357.0405578613281,540.2402954101562C357.0065612792969,540.2138061523438,356.9820556640625,540.1718139648438,356.97845458984375,540.1278686523438C356.14605712890625,531.1627807617188,357.8425598144531,522.0853881835938,364.03546142578125,512.7791137695312C364.0504455566406,512.75439453125,364.0731506347656,512.7351684570312,364.099365234375,512.7238159179688C367.14654541015625,511.31658935546875,370.4111633300781,510.2814025878906,373.8232421875,509.690185546875C373.8853454589844,509.68060302734375,373.94744873046875,509.7093811035156,373.9796447753906,509.76470947265625C374.4012451171875,510.51568603515625,374.8831481933594,511.4788818359375,375.20916748046875,512.2659912109375C378.8057556152344,511.71319580078125,382.4584655761719,511.71319580078125,386.1303405761719,512.2659912109375C386.45635986328125,511.4956970214844,386.9215393066406,510.51568603515625,387.3413391113281,509.76470947265625C387.35626220703125,509.7373046875,387.37945556640625,509.7153015136719,387.4075622558594,509.701904296875C387.4356689453125,509.6885070800781,387.4672546386719,509.68438720703125,387.49774169921875,509.690185546875C390.9116516113281,510.283203125,394.1761474609375,511.3183898925781,397.2210388183594,512.7238159179688C397.24786376953125,512.7351684570312,397.26995849609375,512.75439453125,397.28314208984375,512.7808837890625L397.28314208984375,512.7808837890625ZM377.03765869140625,529.8265991210938C377.07525634765625,527.17626953125,375.15484619140625,524.9832153320312,372.744140625,524.9832153320312C370.3532409667969,524.9832153320312,368.45135498046875,527.1571044921875,368.45135498046875,529.8265991210938C368.45135498046875,532.4954833984375,370.390869140625,534.6693115234375,372.744140625,534.6693115234375C375.1357421875,534.6693115234375,377.03765869140625,532.4954833984375,377.03765869140625,529.8265991210938L377.03765869140625,529.8265991210938ZM392.9108581542969,529.8265991210938C392.9484558105469,527.17626953125,391.0280456542969,524.9832153320312,388.6179504394531,524.9832153320312C386.2264404296875,524.9832153320312,384.3245544433594,527.1571044921875,384.3245544433594,529.8265991210938C384.3245544433594,532.4954833984375,386.2640686035156,534.6693115234375,388.6179504394531,534.6693115234375C391.0280456542969,534.6693115234375,392.9108581542969,532.4954833984375,392.9108581542969,529.8265991210938L392.9108581542969,529.8265991210938Z" style="fill:#5865f2">
                  </path>
                </g>
              </g>
            </g>
          </g>
        </g>
      </g>
    </g>
  </g>
</svg>