<svg width="92" xmlns="http://www.w3.org/2000/svg" height="92" id="screenshot-3e2af91f-c15a-80e4-8003-1b5c5050ade9" viewBox="957 272 92 92" style="-webkit-print-color-adjust::exact" xmlns:xlink="http://www.w3.org/1999/xlink" fill="none" version="1.1">
  <g id="shape-3e2af91f-c15a-80e4-8003-1b5c5050ade9">
    <g class="frame-container-wrapper">
      <g class="frame-container-blur">
        <g class="frame-container-shadows">
          <g fill="none">
            <g class="fills" id="fills-3e2af91f-c15a-80e4-8003-1b5c5050ade9">
              <rect rx="0" ry="0" x="957.0000000000001" y="271.99999999999994" width="93" height="92" transform="matrix(1.000000, 0.000000, 0.000000, 1.000000, 0.000000, 0.000000)" class="frame-background">
              </rect>
            </g>
            <g class="frame-children">
              <g id="shape-3e2af91f-c15a-80e4-8003-1b5c5050adea" style="display:none">
                <g class="fills" id="fills-3e2af91f-c15a-80e4-8003-1b5c5050adea">
                  <rect rx="0" ry="0" x="957.0000000000001" y="271.99999999999994" transform="matrix(1.000000, 0.000000, 0.000000, 1.000000, 0.000000, 0.000000)" width="92" height="91.99999999999994" fill="none" style="fill:none">
                  </rect>
                </g>
              </g>
              <g id="shape-3e2af91f-c15a-80e4-8003-1b5c5050c585">
                <g class="fills" id="fills-3e2af91f-c15a-80e4-8003-1b5c5050c585">
                  <path d="M1013.4410400390625,320.6402893066406L1014.7315063476562,312.3587951660156L1006.7816772460938,312.3587951660156L1006.7816772460938,306.97589111328125C1006.7816772460938,304.7113952636719,1007.8916015625,302.4986877441406,1011.440673828125,302.4986877441406L1015.1058349609375,302.4986877441406L1015.1058349609375,295.4465026855469C1012.9713134765625,295.1028137207031,1010.8146362304688,294.91680908203125,1008.653076171875,294.8901062011719C1002.1099853515625,294.8901062011719,997.8381958007812,298.86260986328125,997.8381958007812,306.044189453125L997.8381958007812,312.3587951660156L990.5853271484375,312.3587951660156L990.5853271484375,320.6402893066406L997.8381958007812,320.6402893066406L997.8381958007812,340.6709899902344L1006.7816772460938,340.6709899902344L1006.7816772460938,320.6402893066406L1013.4410400390625,320.6402893066406Z" style="fill:#337fff">
                  </path>
                </g>
              </g>
            </g>
          </g>
        </g>
      </g>
    </g>
  </g>
</svg>