<svg width="92" xmlns="http://www.w3.org/2000/svg" height="92" id="screenshot-3e2af91f-c15a-80e4-8003-1b5c50688ea7" viewBox="958 167 92 92" style="-webkit-print-color-adjust::exact" xmlns:xlink="http://www.w3.org/1999/xlink" fill="none" version="1.1">
  <g id="shape-3e2af91f-c15a-80e4-8003-1b5c50688ea7">
    <g class="frame-container-wrapper">
      <g class="frame-container-blur">
        <g class="frame-container-shadows">
          <g fill="none">
            <g class="fills" id="fills-3e2af91f-c15a-80e4-8003-1b5c50688ea7">
              <rect rx="0" ry="0" x="958.0000000000001" y="167" width="92" height="92" transform="matrix(1.000000, 0.000000, 0.000000, 1.000000, 0.000000, 0.000000)" class="frame-background">
              </rect>
            </g>
            <g class="frame-children">
              <g id="shape-3e2af91f-c15a-80e4-8003-1b5c50688ea8" style="display:none">
                <g class="fills" id="fills-3e2af91f-c15a-80e4-8003-1b5c50688ea8">
                  <rect rx="0" ry="0" x="958.0000000000001" y="167" transform="matrix(1.000000, 0.000000, 0.000000, 1.000000, 0.000000, 0.000000)" width="92" height="92" fill="none" style="fill:none">
                  </rect>
                </g>
              </g>
              <g id="shape-3e2af91f-c15a-80e4-8003-1b5c506907ec">
                <defs>
                  <radialGradient cx="0" cy="0" r="1" id="paint0_radial_8_2331" gradientUnits="userSpaceOnUse" gradientTransform="translate(27.4144 71.017) scale(65.31 65.2708)">
                    <stop offset="0.09" stop-color="#FA8F21">
                    </stop>
                    <stop offset="0.78" stop-color="#D82D7E">
                    </stop>
                  </radialGradient>
                </defs>
                <g class="fills" id="fills-3e2af91f-c15a-80e4-8003-1b5c506907ec">
                  <path d="M995.4456176757812,212.7808074951172C995.4456176757812,208.17860412597656,999.1776123046875,204.44679260253906,1003.7825927734375,204.44679260253906C1008.3875122070312,204.44679260253906,1012.12158203125,208.17860412597656,1012.12158203125,212.7808074951172C1012.12158203125,217.38299560546875,1008.3875122070312,221.11480712890625,1003.7825927734375,221.11480712890625C999.1776123046875,221.11480712890625,995.4456176757812,217.38299560546875,995.4456176757812,212.7808074951172ZM990.9376831054688,212.7808074951172C990.9376831054688,219.8708038330078,996.6882934570312,225.6179962158203,1003.7825927734375,225.6179962158203C1010.8767700195312,225.6179962158203,1016.6275024414062,219.8708038330078,1016.6275024414062,212.7808074951172C1016.6275024414062,205.6907958984375,1010.8767700195312,199.943603515625,1003.7825927734375,199.943603515625C996.6882934570312,199.943603515625,990.9376831054688,205.6907958984375,990.9376831054688,212.7808074951172ZM1014.1342163085938,199.43460083007812C1014.1339111328125,200.02789306640625,1014.309814453125,200.60800170898438,1014.639404296875,201.10150146484375C1014.9691162109375,201.59500122070312,1015.4376831054688,201.97970581054688,1015.986083984375,202.20689392089844C1016.5346069335938,202.4342041015625,1017.1381225585938,202.493896484375,1017.7203979492188,202.37840270996094C1018.3027954101562,202.26280212402344,1018.8378295898438,201.977294921875,1019.2576904296875,201.5579071044922C1019.6776733398438,201.1385040283203,1019.9638061523438,200.60409545898438,1020.0798950195312,200.02220153808594C1020.1959228515625,199.4403076171875,1020.13671875,198.83709716796875,1019.9097290039062,198.28880310058594C1019.6828002929688,197.7406005859375,1019.2982177734375,197.2718963623047,1018.8046875,196.94200134277344C1018.3112182617188,196.61219787597656,1017.7308959960938,196.43600463867188,1017.13720703125,196.43580627441406L1017.135986328125,196.43580627441406C1016.3402099609375,196.43609619140625,1015.5770874023438,196.752197265625,1015.0142211914062,197.3144073486328C1014.451416015625,197.87669372558594,1014.1348876953125,198.6392059326172,1014.1342163085938,199.43460083007812L1014.1342163085938,199.43460083007812ZM993.676513671875,233.1302032470703C991.2376708984375,233.01919555664062,989.912109375,232.6132049560547,989.0311279296875,232.27020263671875C987.8632202148438,231.8157958984375,987.0299072265625,231.27459716796875,986.15380859375,230.40020751953125C985.2777099609375,229.5258026123047,984.7354125976562,228.6938018798828,984.28271484375,227.52659606933594C983.9392700195312,226.6466064453125,983.5330200195312,225.32139587402344,983.4221801757812,222.88400268554688C983.3009033203125,220.24879455566406,983.2766723632812,219.4571990966797,983.2766723632812,212.781005859375C983.2766723632812,206.10479736328125,983.3029174804688,205.31539916992188,983.4221801757812,202.67799377441406C983.533203125,200.2406005859375,983.9425048828125,198.91799926757812,984.28271484375,198.035400390625C984.7374267578125,196.86819458007812,985.2788696289062,196.035400390625,986.15380859375,195.15980529785156C987.0286865234375,194.28419494628906,987.8612060546875,193.74220275878906,989.0311279296875,193.289794921875C989.9116821289062,192.94659423828125,991.2376708984375,192.5406036376953,993.676513671875,192.42979431152344C996.3132934570312,192.30859375,997.1054077148438,192.28439331054688,1003.7825927734375,192.28439331054688C1010.4597778320312,192.28439331054688,1011.252685546875,192.3105926513672,1013.8916015625,192.42979431152344C1016.3305053710938,192.54080200195312,1017.6538696289062,192.94979858398438,1018.5369873046875,193.289794921875C1019.7048950195312,193.74220275878906,1020.5382080078125,194.285400390625,1021.4144287109375,195.15980529785156C1022.29052734375,196.03419494628906,1022.830810546875,196.86819458007812,1023.2855224609375,198.035400390625C1023.62890625,198.9154052734375,1024.03515625,200.2406005859375,1024.14599609375,202.67799377441406C1024.267333984375,205.31539916992188,1024.29150390625,206.10479736328125,1024.29150390625,212.781005859375C1024.29150390625,219.4571990966797,1024.267333984375,220.24659729003906,1024.14599609375,222.88400268554688C1024.034912109375,225.32139587402344,1023.626708984375,226.6461944580078,1023.2855224609375,227.52659606933594C1022.830810546875,228.6938018798828,1022.289306640625,229.52659606933594,1021.4144287109375,230.40020751953125C1020.5394287109375,231.2738037109375,1019.7048950195312,231.8157958984375,1018.5369873046875,232.27020263671875C1017.656494140625,232.6134033203125,1016.3305053710938,233.01939392089844,1013.8916015625,233.1302032470703C1011.2548828125,233.25140380859375,1010.4628295898438,233.27560424804688,1003.7825927734375,233.27560424804688C997.1024169921875,233.27560424804688,996.3125,233.25140380859375,993.676513671875,233.1302032470703L993.676513671875,233.1302032470703ZM993.4694213867188,187.9322052001953C990.806396484375,188.05340576171875,988.9866943359375,188.47540283203125,987.3975830078125,189.09339904785156C985.7517700195312,189.73159790039062,984.3585205078125,190.58779907226562,982.96630859375,191.9770050048828C981.5740966796875,193.36619567871094,980.719482421875,194.76080322265625,980.0809936523438,196.4055938720703C979.4625854492188,197.9947967529297,979.040283203125,199.81239318847656,978.9191284179688,202.4738006591797C978.7957763671875,205.139404296875,978.767578125,205.99159240722656,978.767578125,212.7808074951172C978.767578125,219.57000732421875,978.7957763671875,220.4221954345703,978.9191284179688,223.08779907226562C979.040283203125,225.74940490722656,979.4625854492188,227.56680297851562,980.0809936523438,229.156005859375C980.719482421875,230.7998046875,981.5742797851562,232.1959991455078,982.96630859375,233.5845947265625C984.3582763671875,234.97320556640625,985.7517700195312,235.8282012939453,987.3975830078125,236.46820068359375C988.9896850585938,237.08619689941406,990.806396484375,237.50819396972656,993.4694213867188,237.62939453125C996.1380004882812,237.75059509277344,996.9893188476562,237.7808074951172,1003.7825927734375,237.7808074951172C1010.575927734375,237.7808074951172,1011.4285888671875,237.75259399414062,1014.0958251953125,237.62939453125C1016.7589721679688,237.50819396972656,1018.5775146484375,237.08619689941406,1020.1676025390625,236.46820068359375C1021.8123779296875,235.8282012939453,1023.2066040039062,234.9738006591797,1024.598876953125,233.5845947265625C1025.9910888671875,232.19540405273438,1026.84375,230.7998046875,1027.4842529296875,229.156005859375C1028.1025390625,227.56680297851562,1028.52685546875,225.74920654296875,1028.6461181640625,223.08779907226562C1028.7674560546875,220.42019653320312,1028.795654296875,219.57000732421875,1028.795654296875,212.7808074951172C1028.795654296875,205.99159240722656,1028.7674560546875,205.139404296875,1028.6461181640625,202.4738006591797C1028.5247802734375,199.81219482421875,1028.1025390625,197.99380493164062,1027.4842529296875,196.4055938720703C1026.84375,194.7617950439453,1025.9888916015625,193.36839294433594,1024.598876953125,191.9770050048828C1023.2088012695312,190.58560180664062,1021.8123779296875,189.73159790039062,1020.1696166992188,189.09339904785156C1018.5775146484375,188.47540283203125,1016.7587890625,188.05140686035156,1014.0977783203125,187.9322052001953C1011.4306030273438,187.81100463867188,1010.577880859375,187.7808074951172,1003.7846069335938,187.7808074951172C996.9912719726562,187.7808074951172,996.1380004882812,187.8090057373047,993.4694213867188,187.9322052001953Z" fill="url(#paint0_radial_8_2331)" style="fill:url(#paint0_radial_8_2331)">
                  </path>
                </g>
              </g>
              <g id="shape-3e2af91f-c15a-80e4-8003-1b5c50698030">
                <defs>
                  <radialGradient cx="0" cy="0" r="1" id="paint1_radial_8_2331" gradientUnits="userSpaceOnUse" gradientTransform="translate(51.1086 73.257) scale(51.4733 51.4424)">
                    <stop offset="0.64" stop-color="#8C3AAA" stop-opacity="0">
                    </stop>
                    <stop offset="1" stop-color="#8C3AAA">
                    </stop>
                  </radialGradient>
                </defs>
                <g class="fills" id="fills-3e2af91f-c15a-80e4-8003-1b5c50698030">
                  <path d="M995.4456176757812,212.7808074951172C995.4456176757812,208.17860412597656,999.1776123046875,204.44679260253906,1003.7825927734375,204.44679260253906C1008.3875122070312,204.44679260253906,1012.12158203125,208.17860412597656,1012.12158203125,212.7808074951172C1012.12158203125,217.38299560546875,1008.3875122070312,221.11480712890625,1003.7825927734375,221.11480712890625C999.1776123046875,221.11480712890625,995.4456176757812,217.38299560546875,995.4456176757812,212.7808074951172ZM990.9376831054688,212.7808074951172C990.9376831054688,219.8708038330078,996.6882934570312,225.6179962158203,1003.7825927734375,225.6179962158203C1010.8767700195312,225.6179962158203,1016.6275024414062,219.8708038330078,1016.6275024414062,212.7808074951172C1016.6275024414062,205.6907958984375,1010.8767700195312,199.943603515625,1003.7825927734375,199.943603515625C996.6882934570312,199.943603515625,990.9376831054688,205.6907958984375,990.9376831054688,212.7808074951172ZM1014.1342163085938,199.43460083007812C1014.1339111328125,200.02789306640625,1014.309814453125,200.60800170898438,1014.639404296875,201.10150146484375C1014.9691162109375,201.59500122070312,1015.4376831054688,201.97970581054688,1015.986083984375,202.20689392089844C1016.5346069335938,202.4342041015625,1017.1381225585938,202.493896484375,1017.7203979492188,202.37840270996094C1018.3027954101562,202.26280212402344,1018.8378295898438,201.977294921875,1019.2576904296875,201.5579071044922C1019.6776733398438,201.1385040283203,1019.9638061523438,200.60409545898438,1020.0798950195312,200.02220153808594C1020.1959228515625,199.4403076171875,1020.13671875,198.83709716796875,1019.9097290039062,198.28880310058594C1019.6828002929688,197.7406005859375,1019.2982177734375,197.2718963623047,1018.8046875,196.94200134277344C1018.3112182617188,196.61219787597656,1017.7308959960938,196.43600463867188,1017.13720703125,196.43580627441406L1017.135986328125,196.43580627441406C1016.3402099609375,196.43609619140625,1015.5770874023438,196.752197265625,1015.0142211914062,197.3144073486328C1014.451416015625,197.87669372558594,1014.1348876953125,198.6392059326172,1014.1342163085938,199.43460083007812L1014.1342163085938,199.43460083007812ZM993.676513671875,233.1302032470703C991.2376708984375,233.01919555664062,989.912109375,232.6132049560547,989.0311279296875,232.27020263671875C987.8632202148438,231.8157958984375,987.0299072265625,231.27459716796875,986.15380859375,230.40020751953125C985.2777099609375,229.5258026123047,984.7354125976562,228.6938018798828,984.28271484375,227.52659606933594C983.9392700195312,226.6466064453125,983.5330200195312,225.32139587402344,983.4221801757812,222.88400268554688C983.3009033203125,220.24879455566406,983.2766723632812,219.4571990966797,983.2766723632812,212.781005859375C983.2766723632812,206.10479736328125,983.3029174804688,205.31539916992188,983.4221801757812,202.67799377441406C983.533203125,200.2406005859375,983.9425048828125,198.91799926757812,984.28271484375,198.035400390625C984.7374267578125,196.86819458007812,985.2788696289062,196.035400390625,986.15380859375,195.15980529785156C987.0286865234375,194.28419494628906,987.8612060546875,193.74220275878906,989.0311279296875,193.289794921875C989.9116821289062,192.94659423828125,991.2376708984375,192.5406036376953,993.676513671875,192.42979431152344C996.3132934570312,192.30859375,997.1054077148438,192.28439331054688,1003.7825927734375,192.28439331054688C1010.4597778320312,192.28439331054688,1011.252685546875,192.3105926513672,1013.8916015625,192.42979431152344C1016.3305053710938,192.54080200195312,1017.6538696289062,192.94979858398438,1018.5369873046875,193.289794921875C1019.7048950195312,193.74220275878906,1020.5382080078125,194.285400390625,1021.4144287109375,195.15980529785156C1022.29052734375,196.03419494628906,1022.830810546875,196.86819458007812,1023.2855224609375,198.035400390625C1023.62890625,198.9154052734375,1024.03515625,200.2406005859375,1024.14599609375,202.67799377441406C1024.267333984375,205.31539916992188,1024.29150390625,206.10479736328125,1024.29150390625,212.781005859375C1024.29150390625,219.4571990966797,1024.267333984375,220.24659729003906,1024.14599609375,222.88400268554688C1024.034912109375,225.32139587402344,1023.626708984375,226.6461944580078,1023.2855224609375,227.52659606933594C1022.830810546875,228.6938018798828,1022.289306640625,229.52659606933594,1021.4144287109375,230.40020751953125C1020.5394287109375,231.2738037109375,1019.7048950195312,231.8157958984375,1018.5369873046875,232.27020263671875C1017.656494140625,232.6134033203125,1016.3305053710938,233.01939392089844,1013.8916015625,233.1302032470703C1011.2548828125,233.25140380859375,1010.4628295898438,233.27560424804688,1003.7825927734375,233.27560424804688C997.1024169921875,233.27560424804688,996.3125,233.25140380859375,993.676513671875,233.1302032470703L993.676513671875,233.1302032470703ZM993.4694213867188,187.9322052001953C990.806396484375,188.05340576171875,988.9866943359375,188.47540283203125,987.3975830078125,189.09339904785156C985.7517700195312,189.73159790039062,984.3585205078125,190.58779907226562,982.96630859375,191.9770050048828C981.5740966796875,193.36619567871094,980.719482421875,194.76080322265625,980.0809936523438,196.4055938720703C979.4625854492188,197.9947967529297,979.040283203125,199.81239318847656,978.9191284179688,202.4738006591797C978.7957763671875,205.139404296875,978.767578125,205.99159240722656,978.767578125,212.7808074951172C978.767578125,219.57000732421875,978.7957763671875,220.4221954345703,978.9191284179688,223.08779907226562C979.040283203125,225.74940490722656,979.4625854492188,227.56680297851562,980.0809936523438,229.156005859375C980.719482421875,230.7998046875,981.5742797851562,232.1959991455078,982.96630859375,233.5845947265625C984.3582763671875,234.97320556640625,985.7517700195312,235.8282012939453,987.3975830078125,236.46820068359375C988.9896850585938,237.08619689941406,990.806396484375,237.50819396972656,993.4694213867188,237.62939453125C996.1380004882812,237.75059509277344,996.9893188476562,237.7808074951172,1003.7825927734375,237.7808074951172C1010.575927734375,237.7808074951172,1011.4285888671875,237.75259399414062,1014.0958251953125,237.62939453125C1016.7589721679688,237.50819396972656,1018.5775146484375,237.08619689941406,1020.1676025390625,236.46820068359375C1021.8123779296875,235.8282012939453,1023.2066040039062,234.9738006591797,1024.598876953125,233.5845947265625C1025.9910888671875,232.19540405273438,1026.84375,230.7998046875,1027.4842529296875,229.156005859375C1028.1025390625,227.56680297851562,1028.52685546875,225.74920654296875,1028.6461181640625,223.08779907226562C1028.7674560546875,220.42019653320312,1028.795654296875,219.57000732421875,1028.795654296875,212.7808074951172C1028.795654296875,205.99159240722656,1028.7674560546875,205.139404296875,1028.6461181640625,202.4738006591797C1028.5247802734375,199.81219482421875,1028.1025390625,197.99380493164062,1027.4842529296875,196.4055938720703C1026.84375,194.7617950439453,1025.9888916015625,193.36839294433594,1024.598876953125,191.9770050048828C1023.2088012695312,190.58560180664062,1021.8123779296875,189.73159790039062,1020.1696166992188,189.09339904785156C1018.5775146484375,188.47540283203125,1016.7587890625,188.05140686035156,1014.0977783203125,187.9322052001953C1011.4306030273438,187.81100463867188,1010.577880859375,187.7808074951172,1003.7846069335938,187.7808074951172C996.9912719726562,187.7808074951172,996.1380004882812,187.8090057373047,993.4694213867188,187.9322052001953Z" fill="url(#paint1_radial_8_2331)" style="fill:url(#paint1_radial_8_2331)">
                  </path>
                </g>
              </g>
              <g id="shape-3e2af91f-c15a-80e4-8003-1b5c5069c418">
              </g>
            </g>
          </g>
        </g>
      </g>
    </g>
  </g>
</svg>