<svg width="93" xmlns="http://www.w3.org/2000/svg" height="92" id="screenshot-3e2af91f-c15a-80e4-8003-1b5c507cf4c2" viewBox="957 62 93 92" style="-webkit-print-color-adjust::exact" xmlns:xlink="http://www.w3.org/1999/xlink" fill="none" version="1.1">
  <g id="shape-3e2af91f-c15a-80e4-8003-1b5c507cf4c2">
    <g class="frame-container-wrapper">
      <g class="frame-container-blur">
        <g class="frame-container-shadows">
          <g fill="none">
            <g class="fills" id="fills-3e2af91f-c15a-80e4-8003-1b5c507cf4c2">
              <rect rx="0" ry="0" x="956.9999999999998" y="62" width="93" height="92" transform="matrix(1.000000, 0.000000, 0.000000, 1.000000, 0.000000, 0.000000)" class="frame-background">
              </rect>
            </g>
            <g class="frame-children">
              <g id="shape-3e2af91f-c15a-80e4-8003-1b5c507cf4c3" style="display:none">
                <g class="fills" id="fills-3e2af91f-c15a-80e4-8003-1b5c507cf4c3">
                  <rect rx="0" ry="0" x="956.9999999999998" y="62" transform="matrix(1.000000, 0.000000, 0.000000, 1.000000, 0.000000, 0.000000)" width="93" height="92.00000000000006" fill="none" style="fill:none">
                  </rect>
                </g>
              </g>
              <g id="shape-3e2af91f-c15a-80e4-8003-1b5c507d1a79">
                <g class="fills" id="fills-3e2af91f-c15a-80e4-8003-1b5c507d1a79">
                  <path d="M978.80908203125,86.58380126953125C978.80908203125,84.60569763183594,980.4652099609375,83,982.506591796875,83L1025.1416015625,83C1027.183837890625,83,1028.839111328125,84.60569763183594,1028.839111328125,86.58380126953125L1028.839111328125,129.44679260253906C1028.839111328125,131.42550659179688,1027.183837890625,133.02999877929688,1025.1416015625,133.02999877929688L982.506591796875,133.02999877929688C980.4652709960938,133.02999877929688,978.80908203125,131.4257049560547,978.80908203125,129.44740295410156L978.80908203125,86.58319854736328L978.80908203125,86.58380126953125Z" style="fill:#006699">
                  </path>
                </g>
              </g>
              <g id="shape-3e2af91f-c15a-80e4-8003-1b5c507d1a7a">
                <g class="fills" id="fills-3e2af91f-c15a-80e4-8003-1b5c507d1a7a">
                  <path d="M994.0123291015625,124.86859893798828L994.0123291015625,102.34500122070312L986.5258178710938,102.34500122070312L986.5258178710938,124.86859893798828L994.0131225585938,124.86859893798828L994.0123291015625,124.86859893798828ZM990.2706298828125,99.27030181884766C992.8806762695312,99.27030181884766,994.5056762695312,97.54070281982422,994.5056762695312,95.37930297851562C994.4569091796875,93.1686019897461,992.8806762695312,91.48729705810547,990.3201904296875,91.48729705810547C987.7578735351562,91.48729705810547,986.08447265625,93.1686019897461,986.08447265625,95.37909698486328C986.08447265625,97.54049682617188,987.7089233398438,99.27010345458984,990.2214965820312,99.27010345458984L990.27001953125,99.27010345458984L990.2706298828125,99.27030181884766ZM998.1561889648438,124.86859893798828L1005.64208984375,124.86859893798828L1005.64208984375,112.29180145263672C1005.64208984375,111.61949920654297,1005.6909790039062,110.94550323486328,1005.888671875,110.46530151367188C1006.4296875,109.11979675292969,1007.6614990234375,107.72689819335938,1009.7301025390625,107.72689819335938C1012.4384155273438,107.72689819335938,1013.5223999023438,109.79219818115234,1013.5223999023438,112.82039642333984L1013.5223999023438,124.86859893798828L1021.0081176757812,124.86859893798828L1021.0081176757812,111.95429992675781C1021.0081176757812,105.03630065917969,1017.3153076171875,101.81690216064453,1012.389892578125,101.81690216064453C1008.3516845703125,101.81690216064453,1006.5781860351562,104.0739974975586,1005.5927734375,105.61119842529297L1005.6427001953125,105.61119842529297L1005.6427001953125,102.3458023071289L998.1566162109375,102.3458023071289C998.2542724609375,104.45880126953125,998.156005859375,124.86940002441406,998.156005859375,124.86940002441406L998.1561889648438,124.86859893798828Z" style="fill:#ffffff">
                  </path>
                </g>
              </g>
            </g>
          </g>
        </g>
      </g>
    </g>
  </g>
</svg>