<svg width="92" xmlns="http://www.w3.org/2000/svg" height="92" id="screenshot-3e2af91f-c15a-80e4-8003-1b5c50910e20" viewBox="542.889 167 92 92" style="-webkit-print-color-adjust::exact" xmlns:xlink="http://www.w3.org/1999/xlink" fill="none" version="1.1">
  <g id="shape-3e2af91f-c15a-80e4-8003-1b5c50910e20">
    <g class="frame-container-wrapper">
      <g class="frame-container-blur">
        <g class="frame-container-shadows">
          <g fill="none">
            <g class="fills" id="fills-3e2af91f-c15a-80e4-8003-1b5c50910e20">
              <rect rx="0" ry="0" x="542.8888888888889" y="167" width="93" height="92" transform="matrix(1.000000, 0.000000, 0.000000, 1.000000, 0.000000, 0.000000)" class="frame-background">
              </rect>
            </g>
            <g class="frame-children">
              <g id="shape-3e2af91f-c15a-80e4-8003-1b5c50917070" style="display:none">
                <g class="fills" id="fills-3e2af91f-c15a-80e4-8003-1b5c50917070">
                  <rect rx="0" ry="0" x="542.8888888888889" y="167" transform="matrix(1.000000, 0.000000, 0.000000, 1.000000, 0.000000, 0.000000)" width="92" height="92" fill="none" style="fill:none">
                  </rect>
                </g>
              </g>
              <g id="shape-3e2af91f-c15a-80e4-8003-1b5c50917071">
                <g class="fills" id="fills-3e2af91f-c15a-80e4-8003-1b5c50917071">
                  <path d="M588.888916015625,239C603.248291015625,239,614.888916015625,227.35940551757812,614.888916015625,213C614.888916015625,198.64059448242188,603.248291015625,187,588.888916015625,187C574.5294799804688,187,562.888916015625,198.64059448242188,562.888916015625,213C562.888916015625,227.35940551757812,574.5294799804688,239,588.888916015625,239Z" style="fill:#ff4500">
                  </path>
                </g>
              </g>
              <g id="shape-3e2af91f-c15a-80e4-8003-1b5c50920049">
                <g class="fills" id="fills-3e2af91f-c15a-80e4-8003-1b5c50920049">
                  <path d="M606.2053833007812,213.2303466796875C606.2105712890625,213.5865478515625,606.1663818359375,213.94204711914062,606.0728149414062,214.28594970703125C605.9791870117188,214.62974548339844,605.8374633789062,214.9593505859375,605.651611328125,215.2635498046875C605.46630859375,215.5677490234375,605.23876953125,215.8446502685547,604.9761962890625,216.0857391357422C604.7135620117188,216.3269500732422,604.4185180664062,216.5297393798828,604.099365234375,216.68833923339844C604.1065063476562,216.7832489013672,604.1123657226562,216.8787384033203,604.1156005859375,216.97434997558594C604.1234741210938,217.16494750976562,604.1234741210938,217.35574340820312,604.1156005859375,217.5463409423828C604.1123657226562,217.641845703125,604.1065063476562,217.73744201660156,604.099365234375,217.83233642578125C604.099365234375,223.65634155273438,597.3134155273438,228.38833618164062,588.94140625,228.38833618164062C580.5693969726562,228.38833618164062,573.7833862304688,223.65634155273438,573.7833862304688,217.83233642578125C573.7761840820312,217.73744201660156,573.7703857421875,217.641845703125,573.76708984375,217.5463409423828C573.75927734375,217.35574340820312,573.75927734375,217.16494750976562,573.76708984375,216.97434997558594C573.7703857421875,216.8787384033203,573.7761840820312,216.7832489013672,573.7833862304688,216.68833923339844C573.2833862304688,216.4584503173828,572.8392944335938,216.12274169921875,572.4818115234375,215.704345703125C572.1243896484375,215.28594970703125,571.862060546875,214.7948455810547,571.7130737304688,214.26513671875C571.5643920898438,213.73513793945312,571.5327758789062,213.17913818359375,571.6203002929688,212.63565063476562C571.707763671875,212.0922393798828,571.9124755859375,211.5743408203125,572.2200927734375,211.1178436279297C572.5274658203125,210.66143798828125,572.930419921875,210.27734375,573.4010620117188,209.99224853515625C573.8717041015625,209.70713806152344,574.398681640625,209.52784729003906,574.9456176757812,209.4668426513672C575.4924926757812,209.40554809570312,576.0462036132812,209.46383666992188,576.5682983398438,209.63784790039062C577.0905151367188,209.8118438720703,577.5684814453125,210.0972442626953,577.9693603515625,210.47434997558594C578.7135009765625,209.96994018554688,579.4931640625,209.52005004882812,580.3021850585938,209.12814331054688C581.1115112304688,208.73684692382812,581.947998046875,208.40403747558594,582.805419921875,208.13363647460938C583.6627197265625,207.86325073242188,584.5388793945312,207.65594482421875,585.4262084960938,207.51223754882812C586.3134155273438,207.36863708496094,587.2103881835938,207.28994750976562,588.109375,207.27633666992188L590.0333862304688,198.2543487548828C590.0548095703125,198.14964294433594,590.0971069335938,198.05084228515625,590.157470703125,197.9624481201172C590.21728515625,197.87474060058594,590.294677734375,197.79934692382812,590.3836669921875,197.74143981933594C590.473388671875,197.6836395263672,590.573486328125,197.64393615722656,590.6787719726562,197.62445068359375C590.7835083007812,197.6056365966797,590.8914184570312,197.6075439453125,590.995361328125,197.63034057617188L597.3654174804688,198.9043426513672C598.0081787109375,197.79994201660156,599.3576049804688,197.3267364501953,600.549072265625,197.7869415283203C601.740478515625,198.2471466064453,602.4216918945312,199.50494384765625,602.1552124023438,200.75424194335938C601.889404296875,202.0035400390625,600.7545166015625,202.87454223632812,599.4791870117188,202.808837890625C598.2031860351562,202.7432403564453,597.1638793945312,201.76043701171875,597.0274047851562,200.49034118652344L591.46337890625,199.32034301757812L589.7733764648438,207.43234252929688C590.6613159179688,207.45114135742188,591.5471801757812,207.5343475341797,592.4234008789062,207.68064880371094C594.1781005859375,207.97303771972656,595.8812866210938,208.51734924316406,597.4804077148438,209.29653930664062C598.2791137695312,209.68524169921875,599.0487670898438,210.13095092773438,599.7833862304688,210.63034057617188C600.3115844726562,210.12313842773438,600.9752807617188,209.77984619140625,601.6943969726562,209.6416473388672C602.4135131835938,209.50303649902344,603.1572875976562,209.575439453125,603.8360595703125,209.850341796875C604.5150146484375,210.1250457763672,605.0999145507812,210.59024047851562,605.520263671875,211.18994140625C605.9407958984375,211.7897491455078,606.1787109375,212.4983367919922,606.2053833007812,213.2303466796875L606.2053833007812,213.2303466796875ZM580.4030151367188,216.825439453125C580.5343017578125,217.1407470703125,580.7254028320312,217.42733764648438,580.9671630859375,217.66854858398438C581.2083129882812,217.91033935546875,581.4949951171875,218.1014404296875,581.8101806640625,218.2327423095703C582.1257934570312,218.36325073242188,582.4638671875,218.4303436279297,582.805419921875,218.4303436279297C583.8571166992188,218.4303436279297,584.8048095703125,217.79653930664062,585.207763671875,216.825439453125C585.610107421875,215.85374450683594,585.38720703125,214.73574829101562,584.6436157226562,213.9921417236328C583.8999633789062,213.24855041503906,582.781982421875,213.02554321289062,581.8101806640625,213.42794799804688C580.839111328125,213.83094787597656,580.2053833007812,214.7786407470703,580.2053833007812,215.83033752441406C580.2053833007812,216.17153930664062,580.2722778320312,216.50953674316406,580.4030151367188,216.825439453125L580.4030151367188,216.825439453125ZM595.2944946289062,223.06674194335938C595.4276733398438,222.93673706054688,595.5037841796875,222.75933837890625,595.5064086914062,222.5734405517578C595.5089721679688,222.3868408203125,595.436767578125,222.2074432373047,595.3067626953125,222.07424926757812C595.1768188476562,221.94094848632812,594.9993896484375,221.8649444580078,594.8134765625,221.8623504638672C594.6268920898438,221.8597412109375,594.447509765625,221.9318389892578,594.29736328125,222.04434204101562C593.9063720703125,222.32473754882812,593.4923706054688,222.57154846191406,593.059814453125,222.78204345703125C592.6270751953125,222.99273681640625,592.177490234375,223.16644287109375,591.715576171875,223.3014373779297C591.2540893554688,223.43594360351562,590.781494140625,223.5315399169922,590.3037719726562,223.5867462158203C589.8253784179688,223.6420440673828,589.3436889648438,223.65634155273438,588.8634033203125,223.63034057617188C588.3836669921875,223.65174865722656,587.9027099609375,223.6322479248047,587.4262084960938,223.57244873046875C586.94970703125,223.51324462890625,586.4790649414062,223.41323852539062,586.0195922851562,223.2734375C585.5593872070312,223.13433837890625,585.1129150390625,222.95623779296875,584.6831665039062,222.7417449951172C584.2536010742188,222.52723693847656,583.8427734375,222.27633666992188,583.4553833007812,221.99234008789062C583.32080078125,221.8818359375,583.14990234375,221.8252410888672,582.9757080078125,221.833740234375C582.801513671875,221.84214782714844,582.636962890625,221.9156494140625,582.5134887695312,222.03843688964844C582.3906860351562,222.1619415283203,582.3171997070312,222.32644653320312,582.3087768554688,222.50064086914062C582.30029296875,222.6748504638672,582.3568725585938,222.8457489013672,582.4674072265625,222.9803466796875C582.92431640625,223.32484436035156,583.409912109375,223.62904357910156,583.9187622070312,223.89035034179688C584.4277954101562,224.15164184570312,584.9588012695312,224.3680419921875,585.5047607421875,224.53834533691406C586.05078125,224.70864868164062,586.6104736328125,224.83154296875,587.1779174804688,224.90625C587.745361328125,224.9803466796875,588.3179931640625,225.0057373046875,588.889404296875,224.9823455810547C589.460693359375,225.0057373046875,590.0333862304688,224.9803466796875,590.6007690429688,224.90625C591.7373657226562,224.75674438476562,592.8397827148438,224.41314697265625,593.85986328125,223.89035034179688C594.368896484375,223.62904357910156,594.8543701171875,223.32484436035156,595.3114013671875,222.9803466796875L595.2944946289062,223.06674194335938ZM594.8173828125,218.63833618164062C595.169677734375,218.64224243164062,595.5194091796875,218.57394409179688,595.844970703125,218.43873596191406C596.1707153320312,218.30294799804688,596.465087890625,218.1027374267578,596.7108154296875,217.84983825683594C596.9564819335938,217.5970458984375,597.1475830078125,217.29673767089844,597.273681640625,216.96714782714844C597.39990234375,216.63804626464844,597.4575805664062,216.2865447998047,597.4434204101562,215.93434143066406C597.4434204101562,214.8826446533203,596.8095703125,213.9349365234375,595.8385009765625,213.5319366455078C594.8667602539062,213.12954711914062,593.748779296875,213.3525390625,593.0051879882812,214.0961456298828C592.2615966796875,214.83973693847656,592.03857421875,215.95774841308594,592.4409790039062,216.929443359375C592.843994140625,217.90054321289062,593.7916870117188,218.5343475341797,594.8433837890625,218.5343475341797L594.8173828125,218.63833618164062Z" style="fill:#ffffff">
                  </path>
                </g>
              </g>
            </g>
          </g>
        </g>
      </g>
    </g>
  </g>
</svg>