<svg width="92" xmlns="http://www.w3.org/2000/svg" height="92" id="screenshot-3e2af91f-c15a-80e4-8003-1b5c5099996c" viewBox="335.333 167 92 92" style="-webkit-print-color-adjust::exact" xmlns:xlink="http://www.w3.org/1999/xlink" fill="none" version="1.1">
  <g id="shape-3e2af91f-c15a-80e4-8003-1b5c5099996c">
    <g class="frame-container-wrapper">
      <g class="frame-container-blur">
        <g class="frame-container-shadows">
          <g fill="none">
            <g class="fills" id="fills-3e2af91f-c15a-80e4-8003-1b5c5099996c">
              <rect rx="0" ry="0" x="335.3333333333334" y="167" width="92" height="93" transform="matrix(1.000000, 0.000000, 0.000000, 1.000000, 0.000000, 0.000000)" class="frame-background">
              </rect>
            </g>
            <g class="frame-children">
              <g id="shape-3e2af91f-c15a-80e4-8003-1b5c5099d483" style="display:none">
                <g class="fills" id="fills-3e2af91f-c15a-80e4-8003-1b5c5099d483">
                  <rect rx="0" ry="0" x="335.3333333333334" y="167" transform="matrix(1.000000, 0.000000, 0.000000, 1.000000, 0.000000, 0.000000)" width="91.99999999999989" height="92" fill="none" style="fill:none">
                  </rect>
                </g>
              </g>
              <g id="shape-3e2af91f-c15a-80e4-8003-1b5c5099d484">
                <g class="fills" id="fills-3e2af91f-c15a-80e4-8003-1b5c5099d484">
                  <path d="M367.24871826171875,220.17030334472656C367.24871826171875,223.0762939453125,364.9000244140625,225.4250030517578,361.9939270019531,225.4250030517578C359.0879211425781,225.4250030517578,356.7392272949219,223.0762939453125,356.7392272949219,220.17030334472656C356.7392272949219,217.2642059326172,359.0879211425781,214.91549682617188,361.9939270019531,214.91549682617188L367.24871826171875,214.91549682617188L367.24871826171875,220.17030334472656ZM369.87603759765625,220.17030334472656C369.87603759765625,217.2642059326172,372.2248229980469,214.91549682617188,375.1308288574219,214.91549682617188C378.0368347167969,214.91549682617188,380.3855285644531,217.2642059326172,380.3855285644531,220.17030334472656L380.3855285644531,233.30709838867188C380.3855285644531,236.21319580078125,378.0368347167969,238.56190490722656,375.1308288574219,238.56190490722656C372.2248229980469,238.56190490722656,369.87603759765625,236.21319580078125,369.87603759765625,233.30709838867188L369.87603759765625,220.17030334472656Z" style="fill:#e01e5a">
                  </path>
                </g>
              </g>
              <g id="shape-3e2af91f-c15a-80e4-8003-1b5c509a167b">
                <g class="fills" id="fills-3e2af91f-c15a-80e4-8003-1b5c509a167b">
                  <path d="M375.12823486328125,199.07150268554688C372.22222900390625,199.07150268554688,369.87353515625,196.72279357910156,369.87353515625,193.81680297851562C369.87353515625,190.91070556640625,372.22222900390625,188.56199645996094,375.12823486328125,188.56199645996094C378.0343322753906,188.56199645996094,380.3830261230469,190.91070556640625,380.3830261230469,193.81680297851562L380.3830261230469,199.07150268554688L375.12823486328125,199.07150268554688ZM375.12823486328125,201.7386932373047C378.0343322753906,201.7386932373047,380.3830261230469,204.08740234375,380.3830261230469,206.99339294433594C380.3830261230469,209.89950561523438,378.0343322753906,212.24819946289062,375.12823486328125,212.24819946289062L361.9516296386719,212.24819946289062C359.0455322265625,212.24819946289062,356.69683837890625,209.89950561523438,356.69683837890625,206.99339294433594C356.69683837890625,204.08740234375,359.0455322265625,201.7386932373047,361.9516296386719,201.7386932373047L375.12823486328125,201.7386932373047Z" style="fill:#36c5f0">
                  </path>
                </g>
              </g>
              <g id="shape-3e2af91f-c15a-80e4-8003-1b5c509a167c">
                <g class="fills" id="fills-3e2af91f-c15a-80e4-8003-1b5c509a167c">
                  <path d="M396.18902587890625,206.99339294433594C396.18902587890625,204.08740234375,398.5377197265625,201.7386932373047,401.4437255859375,201.7386932373047C404.3497314453125,201.7386932373047,406.69854736328125,204.08740234375,406.69854736328125,206.99339294433594C406.69854736328125,209.89950561523438,404.3497314453125,212.24819946289062,401.4437255859375,212.24819946289062L396.18902587890625,212.24819946289062L396.18902587890625,206.99339294433594ZM393.5616455078125,206.99339294433594C393.5616455078125,209.89950561523438,391.2129211425781,212.24819946289062,388.30694580078125,212.24819946289062C385.4008483886719,212.24819946289062,383.0521240234375,209.89950561523438,383.0521240234375,206.99339294433594L383.0521240234375,193.81680297851562C383.0521240234375,190.91070556640625,385.4008483886719,188.56199645996094,388.30694580078125,188.56199645996094C391.2129211425781,188.56199645996094,393.5616455078125,190.91070556640625,393.5616455078125,193.81680297851562L393.5616455078125,206.99339294433594L393.5616455078125,206.99339294433594Z" style="fill:#2eb67d">
                  </path>
                </g>
              </g>
              <g id="shape-3e2af91f-c15a-80e4-8003-1b5c509a167d">
                <g class="fills" id="fills-3e2af91f-c15a-80e4-8003-1b5c509a167d">
                  <path d="M388.30694580078125,228.05239868164062C391.2129211425781,228.05239868164062,393.5616455078125,230.40109252929688,393.5616455078125,233.30709838867188C393.5616455078125,236.21319580078125,391.2129211425781,238.56190490722656,388.30694580078125,238.56190490722656C385.4008483886719,238.56190490722656,383.0521240234375,236.21319580078125,383.0521240234375,233.30709838867188L383.0521240234375,228.05239868164062L388.30694580078125,228.05239868164062ZM388.30694580078125,225.4250030517578C385.4008483886719,225.4250030517578,383.0521240234375,223.0762939453125,383.0521240234375,220.17030334472656C383.0521240234375,217.2642059326172,385.4008483886719,214.91549682617188,388.30694580078125,214.91549682617188L401.4835205078125,214.91549682617188C404.3896484375,214.91549682617188,406.73834228515625,217.2642059326172,406.73834228515625,220.17030334472656C406.73834228515625,223.0762939453125,404.3896484375,225.4250030517578,401.4835205078125,225.4250030517578L388.30694580078125,225.4250030517578Z" style="fill:#ecb22e">
                  </path>
                </g>
              </g>
            </g>
          </g>
        </g>
      </g>
    </g>
  </g>
</svg>