<svg width="92" xmlns="http://www.w3.org/2000/svg" height="92" id="screenshot-3e2af91f-c15a-80e4-8003-1b5c50b613f6" viewBox="24 482 92 92" style="-webkit-print-color-adjust::exact" xmlns:xlink="http://www.w3.org/1999/xlink" fill="none" version="1.1">
  <g id="shape-3e2af91f-c15a-80e4-8003-1b5c50b613f6">
    <g class="frame-container-wrapper">
      <g class="frame-container-blur">
        <g class="frame-container-shadows">
          <g fill="none">
            <g class="fills" id="fills-3e2af91f-c15a-80e4-8003-1b5c50b613f6">
              <rect rx="0" ry="0" x="24" y="481.99999999999994" width="92" height="92" transform="matrix(1.000000, 0.000000, 0.000000, 1.000000, 0.000000, 0.000000)" class="frame-background">
              </rect>
            </g>
            <g class="frame-children">
              <g id="shape-3e2af91f-c15a-80e4-8003-1b5c50b67733" style="display:none">
                <g class="fills" id="fills-3e2af91f-c15a-80e4-8003-1b5c50b67733">
                  <rect rx="0" ry="0" x="24" y="481.99999999999994" transform="matrix(1.000000, 0.000000, 0.000000, 1.000000, 0.000000, 0.000000)" width="92" height="92.00000000000006" fill="none" style="fill:none">
                  </rect>
                </g>
              </g>
              <g id="shape-3e2af91f-c15a-80e4-8003-1b5c50b6b77f">
                <g class="fills" id="fills-3e2af91f-c15a-80e4-8003-1b5c50b6b77f">
                  <path d="M79.79630279541016,521.4285278320312C82.86289978027344,523.6085205078125,86.5353012084961,524.7733154296875,90.29779815673828,524.7592163085938L90.29779815673828,517.3024291992188C89.55809783935547,517.3045043945312,88.82050323486328,517.2252807617188,88.09809875488281,517.0662841796875L88.09809875488281,523.0067749023438C84.32710266113281,523.0134887695312,80.64929962158203,521.8353881835938,77.58409881591797,519.638916015625L77.58409881591797,534.9749145507812C77.57479858398438,537.4913940429688,76.88469696044922,539.95849609375,75.58689880371094,542.1146240234375C74.28910064697266,544.2706298828125,72.43209838867188,546.0352783203125,70.21260070800781,547.2214965820312C67.99320220947266,548.4075927734375,65.49410247802734,548.9711303710938,62.98040008544922,548.8519897460938C60.46670150756836,548.7329711914062,58.032100677490234,547.9359130859375,55.93470001220703,546.5452880859375C57.874698638916016,548.5081787109375,60.353599548339844,549.851318359375,63.057498931884766,550.4044189453125C65.76129913330078,550.9575805664062,68.56849670410156,550.6959228515625,71.12359619140625,549.652587890625C73.67859649658203,548.6093139648438,75.8666000366211,546.8311767578125,77.4104995727539,544.5435791015625C78.95439910888672,542.2559814453125,79.78469848632812,539.5615844726562,79.79630279541016,536.8018188476562L79.79630279541016,521.4285278320312ZM82.51799774169922,513.8225708007812C80.95850372314453,512.13232421875,80.00160217285156,509.9739074707031,79.79630279541016,507.6831970214844L79.79630279541016,506.7138977050781L77.7083969116211,506.7138977050781C77.96649932861328,508.1698913574219,78.5280990600586,509.5552978515625,79.35669708251953,510.7799987792969C80.185302734375,512.0048217773438,81.26239776611328,513.0413818359375,82.51799774169922,513.8225708007812L82.51799774169922,513.8225708007812ZM60.769100189208984,540.6420288085938C60.045501708984375,539.6956787109375,59.60200119018555,538.5653076171875,59.489200592041016,537.3792724609375C59.376399993896484,536.1934204101562,59.59870147705078,534.9995727539062,60.13100051879883,533.9337768554688C60.66320037841797,532.8681030273438,61.48400115966797,531.9730834960938,62.49980163574219,531.350830078125C63.51559829711914,530.728515625,64.68579864501953,530.4038696289062,65.87699890136719,530.4138793945312C66.53469848632812,530.4136962890625,67.1884994506836,530.5142822265625,67.81580352783203,530.7120971679688L67.81580352783203,523.0067749023438C67.08260345458984,522.9097290039062,66.34310150146484,522.8682250976562,65.60359954833984,522.8826293945312L65.60359954833984,528.872802734375C64.07640075683594,528.3900146484375,62.42340087890625,528.4998168945312,60.9734001159668,529.1802978515625C59.523399353027344,529.8607788085938,58.3827018737793,531.0620727539062,57.778099060058594,532.54541015625C57.173500061035156,534.0286254882812,57.14939880371094,535.6851196289062,57.71049880981445,537.185302734375C58.27159881591797,538.6854858398438,59.37689971923828,539.9196166992188,60.806400299072266,540.6420288085938L60.769100189208984,540.6420288085938Z" fill-rule="evenodd" clip-rule="evenodd" style="fill:#ee1d52">
                  </path>
                </g>
              </g>
              <g id="shape-3e2af91f-c15a-80e4-8003-1b5c50b6f806">
                <g class="fills" id="fills-3e2af91f-c15a-80e4-8003-1b5c50b6f806">
                  <path d="M77.58300018310547,519.5891723632812C80.64820098876953,521.7857055664062,84.32599639892578,522.9638061523438,88.09700012207031,522.9570922851562L88.09700012207031,517.0166015625C85.94850158691406,516.5623168945312,83.99669647216797,515.4451904296875,82.51689910888672,513.8225708007812C81.26139831542969,513.0413818359375,80.1843032836914,512.0048217773438,79.35559844970703,510.7799987792969C78.5270004272461,509.5552978515625,77.96540069580078,508.1698913574219,77.7072982788086,506.7138977050781L72.21420288085938,506.7138977050781L72.21420288085938,536.8018188476562C72.20909881591797,538.1336059570312,71.78700256347656,539.430419921875,71.0073013305664,540.510009765625C70.22750091552734,541.5897216796875,69.12930297851562,542.3980712890625,67.8666000366211,542.8217163085938C66.60399627685547,543.2453002929688,65.24040222167969,543.2628784179688,63.96730041503906,542.8720092773438C62.69409942626953,542.4810791015625,61.575401306152344,541.701171875,60.76810073852539,540.6420288085938C59.48870086669922,539.9965209960938,58.4640007019043,538.938720703125,57.859500885009766,537.639404296875C57.255001068115234,536.340087890625,57.105899810791016,534.875,57.43619918823242,533.4805297851562C57.76649856567383,532.0861206054688,58.55699920654297,530.843505859375,59.68009948730469,529.9534912109375C60.803199768066406,529.0634155273438,62.19340133666992,528.5775756835938,63.62649917602539,528.5745239257812C64.28399658203125,528.5765991210938,64.9375,528.6771850585938,65.56520080566406,528.872802734375L65.56520080566406,522.8826293945312C62.85300064086914,522.9476928710938,60.21870040893555,523.8032836914062,57.98590087890625,525.3444213867188C55.75299835205078,526.885498046875,54.018699645996094,529.0451049804688,52.99589920043945,531.5579223632812C51.97309875488281,534.07080078125,51.706199645996094,536.8275756835938,52.22809982299805,539.489990234375C52.749900817871094,542.1524047851562,54.03779983520508,544.6044921875,55.93360137939453,546.5452880859375C58.03150177001953,547.9459228515625,60.46989822387695,548.751220703125,62.98929977416992,548.87548828125C65.50859832763672,548.9996948242188,68.0145034790039,548.4382934570312,70.23999786376953,547.2509155273438C72.46549987792969,546.0635986328125,74.32720184326172,544.2947998046875,75.62689971923828,542.1329956054688C76.92649841308594,539.97119140625,77.6155014038086,537.497314453125,77.62030029296875,534.9749145507812L77.58300018310547,519.5891723632812Z" fill-rule="evenodd" clip-rule="evenodd" style="fill:#000000">
                  </path>
                </g>
              </g>
              <g id="shape-3e2af91f-c15a-80e4-8003-1b5c50b72564">
                <g class="fills" id="fills-3e2af91f-c15a-80e4-8003-1b5c50b72564">
                  <path d="M88.09770202636719,517.01611328125L88.09770202636719,515.4129028320312C86.12460327148438,515.4213256835938,84.1895980834961,514.86962890625,82.5176010131836,513.8220825195312C83.99369812011719,515.4492797851562,85.9469985961914,516.5673828125,88.09770202636719,517.01611328125L88.09770202636719,517.01611328125ZM77.70800018310547,506.7134094238281C77.70800018310547,506.427490234375,77.62100219726562,506.12921142578125,77.58370208740234,505.8434143066406L77.58370208740234,504.8739929199219L70.00270080566406,504.8739929199219L70.00270080566406,534.9744262695312C69.99610137939453,536.6597900390625,69.32109832763672,538.2738037109375,68.12580108642578,539.4620971679688C66.93049621582031,540.650390625,65.3125991821289,541.31591796875,63.627201080322266,541.3126220703125C62.63479995727539,541.317626953125,61.65530014038086,541.0875854492188,60.768798828125,540.6414794921875C61.57609939575195,541.70068359375,62.694801330566406,542.4805297851562,63.96799850463867,542.8715209960938C65.24109649658203,543.2623901367188,66.60469818115234,543.2448120117188,67.86730194091797,542.8212280273438C69.12999725341797,542.3975830078125,70.22820281982422,541.5891723632812,71.00800323486328,540.509521484375C71.7876968383789,539.4298095703125,72.20970153808594,538.1331176757812,72.21489715576172,536.80126953125L72.21489715576172,506.7134094238281L77.70800018310547,506.7134094238281ZM65.56590270996094,522.86962890625L65.56590270996094,521.1669921875C62.4463996887207,520.7432250976562,59.275299072265625,521.3884887695312,56.569400787353516,522.9976806640625C53.86360168457031,524.6068725585938,51.782501220703125,527.0850830078125,50.66550064086914,530.0283813476562C49.54840087890625,532.9718017578125,49.46110153198242,536.2067260742188,50.41790008544922,539.2059936523438C51.374698638916016,542.205322265625,53.31909942626953,544.7919921875,55.93429946899414,546.5447998046875C54.05289840698242,544.5994873046875,52.77870178222656,542.1483764648438,52.26750183105469,539.4907836914062C51.75630187988281,536.8333129882812,52.03010177612305,534.0844116210938,53.055599212646484,531.5798950195312C54.08110046386719,529.0755004882812,55.813899993896484,526.9240112304688,58.042198181152344,525.38818359375C60.27040100097656,523.8524169921875,62.89780044555664,522.998779296875,65.60320281982422,522.9318237304688L65.56590270996094,522.86962890625Z" fill-rule="evenodd" clip-rule="evenodd" style="fill:#69c9d0">
                  </path>
                </g>
              </g>
            </g>
          </g>
        </g>
      </g>
    </g>
  </g>
</svg>