<svg width="92" xmlns="http://www.w3.org/2000/svg" height="92" id="screenshot-3e2af91f-c15a-80e4-8003-1b5c50ce5ba4" viewBox="127.778 167 92 92" style="-webkit-print-color-adjust::exact" xmlns:xlink="http://www.w3.org/1999/xlink" fill="none" version="1.1">
  <g id="shape-3e2af91f-c15a-80e4-8003-1b5c50ce5ba4">
    <g class="frame-container-wrapper">
      <g class="frame-container-blur">
        <g class="frame-container-shadows">
          <g fill="none">
            <g class="fills" id="fills-3e2af91f-c15a-80e4-8003-1b5c50ce5ba4">
              <rect rx="0" ry="0" x="127.7777777777778" y="167" width="92" height="92" transform="matrix(1.000000, 0.000000, 0.000000, 1.000000, 0.000000, 0.000000)" class="frame-background">
              </rect>
            </g>
            <g class="frame-children">
              <g id="shape-3e2af91f-c15a-80e4-8003-1b5c50ce5ba5" style="display:none">
                <g class="fills" id="fills-3e2af91f-c15a-80e4-8003-1b5c50ce5ba5">
                  <rect rx="0" ry="0" x="127.7777777777778" y="167" transform="matrix(1.000000, 0.000000, 0.000000, 1.000000, 0.000000, 0.000000)" width="92" height="92" fill="none" style="fill:none">
                  </rect>
                </g>
              </g>
              <g id="shape-3e2af91f-c15a-80e4-8003-1b5c50ce9644">
                <g class="fills" id="fills-3e2af91f-c15a-80e4-8003-1b5c50ce9644">
                  <path d="M150.79197692871094,233.8404998779297L154.0765838623047,221.6381072998047C151.42758178710938,216.88470458984375,150.5859832763672,211.33779907226562,151.7061767578125,206.01539611816406C152.8263702392578,200.6929931640625,155.83328247070312,195.95199584960938,160.1751708984375,192.6623992919922C164.51698303222656,189.37289428710938,169.90248107910156,187.75540161132812,175.3433837890625,188.10679626464844C180.78427124023438,188.4582061767578,185.91567993164062,190.7550048828125,189.7959747314453,194.5756072998047C193.67617797851562,198.3961944580078,196.04498291015625,203.48440551757812,196.46768188476562,208.906494140625C196.890380859375,214.32859802246094,195.3385772705078,219.72079467773438,192.09707641601562,224.0937957763672C188.85557556152344,228.466796875,184.14187622070312,231.527099609375,178.82077026367188,232.7133026123047C173.49977111816406,233.89939880371094,167.92828369140625,233.13180541992188,163.12887573242188,230.55130004882812L150.79197692871094,233.8404998779297ZM163.72378540039062,225.98500061035156L164.48667907714844,226.43649291992188C167.96307373046875,228.49180603027344,172.02337646484375,229.34230041503906,176.03488159179688,228.85549926757812C180.04637145996094,228.3686981201172,183.78378295898438,226.5718994140625,186.6646728515625,223.7451934814453C189.5455780029297,220.9185028076172,191.4080810546875,217.22059631347656,191.96197509765625,213.2279052734375C192.51597595214844,209.235107421875,191.73007202148438,205.1717071533203,189.7269744873047,201.6708984375C187.72398376464844,198.17010498046875,184.61607360839844,195.42849731445312,180.88787841796875,193.87339782714844C177.15957641601562,192.3184051513672,173.02027893066406,192.03720092773438,169.11508178710938,193.07359313964844C165.20977783203125,194.11000061035156,161.7579803466797,196.40589904785156,159.2974853515625,199.60350036621094C156.83697509765625,202.80099487304688,155.50607299804688,206.72059631347656,155.5120849609375,210.75140380859375C155.50877380371094,214.0937042236328,156.4354705810547,217.37120056152344,158.18887329101562,220.2191925048828L158.66737365722656,221.006103515625L156.83108520507812,227.8166961669922L163.72378540039062,225.98500061035156Z" style="fill:#00d95f">
                  </path>
                </g>
              </g>
              <g id="shape-3e2af91f-c15a-80e4-8003-1b5c50ce9645">
                <g class="fills" id="fills-3e2af91f-c15a-80e4-8003-1b5c50ce9645">
                  <path d="M182.24168395996094,213.88470458984375C181.79437255859375,213.52490234375,181.2706756591797,213.2716064453125,180.71047973632812,213.14419555664062C180.15017700195312,213.0167999267578,179.56817626953125,213.0186004638672,179.00877380371094,213.14950561523438C178.16818237304688,213.49769592285156,177.6250762939453,214.8134002685547,177.08187866210938,215.47129821777344C176.96737670898438,215.62899780273438,176.799072265625,215.73959350585938,176.60858154296875,215.7823028564453C176.41818237304688,215.82510375976562,176.2185821533203,215.7969970703125,176.04737854003906,215.70339965820312C172.969970703125,214.50120544433594,170.3905792236328,212.29649353027344,168.7279815673828,209.44749450683594C168.586181640625,209.2696990966797,168.51907348632812,209.04400634765625,168.540771484375,208.8177947998047C168.56248474121094,208.5915985107422,168.67127990722656,208.38270568847656,168.84437561035156,208.23500061035156C169.45018005371094,207.6367950439453,169.89488220214844,206.89590454101562,170.1375732421875,206.08090209960938C170.19137573242188,205.18179321289062,169.98487854003906,204.2863006591797,169.5426788330078,203.5010986328125C169.20077514648438,202.40020751953125,168.55007934570312,201.4199981689453,167.66757202148438,200.6761932373047C167.21237182617188,200.4720001220703,166.70767211914062,200.40359497070312,166.2142791748047,200.47909545898438C165.72097778320312,200.55459594726562,165.26007080078125,200.77090454101562,164.88717651367188,201.10189819335938C164.23997497558594,201.65890502929688,163.72618103027344,202.35369873046875,163.38377380371094,203.13499450683594C163.0413818359375,203.9163055419922,162.8789825439453,204.76429748535156,162.90867614746094,205.6165008544922C162.91067504882812,206.0950927734375,162.9714813232422,206.57159423828125,163.0896759033203,207.035400390625C163.38998413085938,208.1497039794922,163.85177612304688,209.2144012451172,164.46047973632812,210.1956024169922C164.89967346191406,210.94729614257812,165.3787841796875,211.67489624023438,165.8958740234375,212.37550354003906C167.57647705078125,214.67669677734375,169.68898010253906,216.6304931640625,172.11607360839844,218.12840270996094C173.33407592773438,218.8896942138672,174.63577270507812,219.50860595703125,175.9956817626953,219.97300720214844C177.40817260742188,220.6116943359375,178.9677734375,220.85679626464844,180.50888061523438,220.68240356445312C181.38687133789062,220.54989624023438,182.21878051757812,220.2041015625,182.93138122558594,219.67550659179688C183.6438751220703,219.1468963623047,184.21527099609375,218.45179748535156,184.59527587890625,217.6511993408203C184.8184814453125,217.16749572753906,184.8862762451172,216.6269073486328,184.78927612304688,216.10330200195312C184.5564727783203,215.03269958496094,183.12107849121094,214.40069580078125,182.24168395996094,213.88470458984375Z" fill-rule="evenodd" clip-rule="evenodd" style="fill:#00d95f">
                  </path>
                </g>
              </g>
            </g>
          </g>
        </g>
      </g>
    </g>
  </g>
</svg>