<svg width="256" xmlns="http://www.w3.org/2000/svg" height="256" id="screenshot-474dd820-e39c-8072-8007-05bff8af6d9f" viewBox="503 485 256 256" style="-webkit-print-color-adjust::exact" xmlns:xlink="http://www.w3.org/1999/xlink" fill="none" version="1.1">
  <g id="shape-474dd820-e39c-8072-8007-05bff8af6d9f" style="fill:#000000" xml:space="preserve" rx="0" ry="0">
    <g id="shape-474dd820-e39c-8072-8007-05bff8afbfc3" style="display:none">
      <g class="fills" id="fills-474dd820-e39c-8072-8007-05bff8afbfc3">
        <rect rx="0" ry="0" x="503" y="485" transform="matrix(1.000000, 0.000000, 0.000000, 1.000000, 0.000000, 0.000000)" width="256" height="256" fill="none" style="fill:none">
        </rect>
      </g>
    </g>
    <g id="shape-474dd820-e39c-8072-8007-05bff8afbfc4">
      <switch style="fill:#000000">
        <g id="shape-474dd820-e39c-8072-8007-05bff8afcb87" style="fill:#000000" rx="0" ry="0">
          <g id="shape-474dd820-e39c-8072-8007-05bff8afcb88">
            <g class="fills" id="fills-474dd820-e39c-8072-8007-05bff8afcb88">
              <rect rx="0" ry="0" x="503" y="485" transform="matrix(1.000000, 0.000000, 0.000000, 1.000000, 0.000000, 0.000000)" width="256" height="256">
              </rect>
            </g>
          </g>
          <g id="shape-474dd820-e39c-8072-8007-05bff8b03601">
            <g class="fills" id="fills-474dd820-e39c-8072-8007-05bff8b03601">
              <path d="M642.9000244140625,603.2000122070312L689.2999877929688,549.2999877929688L678.2999877929688,549.2999877929688L638,596.0999755859375L605.7999877929688,549.2999877929688L568.7000122070312,549.2999877929688L617.2999877929688,620.0999755859375L568.7000122070312,676.5999755859375L579.7000122070312,676.5999755859375L622.2000122070312,627.2000122070312L656.2000122070312,676.5999755859375L693.2999877929688,676.5999755859375L642.9000244140625,603.2000122070312L642.9000244140625,603.2000122070312ZM627.7999877929688,620.7999877929688L622.9000244140625,613.7000122070312L583.5999755859375,557.5999755859375L600.5,557.5999755859375L632.2000122070312,602.9000244140625L637.0999755859375,610L678.2000122070312,668.7999877929688L661.2999877929688,668.7999877929688L627.7999877929688,620.7999877929688L627.7999877929688,620.7999877929688Z" style="fill:#ffffff">
              </path>
            </g>
          </g>
        </g>
      </switch>
    </g>
  </g>
</svg>