<svg width="92" xmlns="http://www.w3.org/2000/svg" height="92" id="screenshot-3e2af91f-c15a-80e4-8003-1b5c50d7f63c" viewBox="24 62 92 92" style="-webkit-print-color-adjust::exact" xmlns:xlink="http://www.w3.org/1999/xlink" fill="none" version="1.1">
  <g id="shape-3e2af91f-c15a-80e4-8003-1b5c50d7f63c">
    <g class="frame-container-wrapper">
      <g class="frame-container-blur">
        <g class="frame-container-shadows">
          <g fill="none">
            <g class="fills" id="fills-3e2af91f-c15a-80e4-8003-1b5c50d7f63c">
              <rect rx="0" ry="0" x="24" y="62" width="92" height="92" transform="matrix(1.000000, 0.000000, 0.000000, 1.000000, 0.000000, 0.000000)" class="frame-background">
              </rect>
            </g>
            <g class="frame-children">
              <g id="shape-3e2af91f-c15a-80e4-8003-1b5c50d7f63d" style="display:none">
                <g class="fills" id="fills-3e2af91f-c15a-80e4-8003-1b5c50d7f63d">
                  <rect rx="0" ry="0" x="24" y="62" transform="matrix(1.000000, 0.000000, 0.000000, 1.000000, 0.000000, 0.000000)" width="92" height="92.00000000000006" fill="none" style="fill:none">
                  </rect>
                </g>
              </g>
              <g id="shape-3e2af91f-c15a-80e4-8003-1b5c50d83c30">
                <g class="fills" id="fills-3e2af91f-c15a-80e4-8003-1b5c50d83c30">
                  <path d="M95.37069702148438,95.18720245361328C94.77290344238281,92.9397964477539,93.00440216064453,91.16680145263672,90.75440216064453,90.55919647216797C86.68609619140625,89.46880340576172,70.36319732666016,89.46880340576172,70.36319732666016,89.46880340576172C70.36319732666016,89.46880340576172,54.048500061035156,89.46880340576172,49.97200012207031,90.55919647216797C47.73030090332031,91.15850067138672,45.96179962158203,92.93150329589844,45.3557014465332,95.18720245361328C44.26810073852539,99.26589965820312,44.26810073852539,107.78109741210938,44.26810073852539,107.78109741210938C44.26810073852539,107.78109741210938,44.26810073852539,116.29640197753906,45.3557014465332,120.375C45.95349884033203,122.62239837646484,47.72200012207031,124.39540100097656,49.97200012207031,125.00309753417969C54.048500061035156,126.09349822998047,70.36319732666016,126.09349822998047,70.36319732666016,126.09349822998047C70.36319732666016,126.09349822998047,86.68609619140625,126.09349822998047,90.75440216064453,125.00309753417969C92.99610137939453,124.40370178222656,94.76460266113281,122.63079833984375,95.37069702148438,120.375C96.45829772949219,116.29640197753906,96.45829772949219,107.78109741210938,96.45829772949219,107.78109741210938C96.45829772949219,107.78109741210938,96.45829772949219,99.26589965820312,95.37069702148438,95.18720245361328Z" style="fill:#ff3000">
                  </path>
                </g>
              </g>
              <g id="shape-3e2af91f-c15a-80e4-8003-1b5c50d83c31">
                <g class="fills" id="fills-3e2af91f-c15a-80e4-8003-1b5c50d83c31">
                  <path d="M65.14910125732422,115.63050079345703L78.7072982788086,107.78109741210938L65.14910125732422,99.93180084228516L65.14910125732422,115.63050079345703Z" style="fill:#ffffff">
                  </path>
                </g>
              </g>
            </g>
          </g>
        </g>
      </g>
    </g>
  </g>
</svg>