<svg xmlns="http://www.w3.org/2000/svg" viewBox="0 0 24 24" width="24" height="24" fill="currentColor">
  <path d="M12.206 2.488C6.741 2.488 2.298 6.93 2.298 12.395c0 4.386 2.857 8.103 6.808 9.416-.094-.785-.178-1.994.038-2.851.193-.772 1.252-5.31 1.252-5.31s-.319-.638-.319-1.582c0-1.482.859-2.589 1.929-2.589.91 0 1.349.683 1.349 1.501 0 .914-.582 2.281-.883 3.546-.251 1.062.533 1.929 1.581 1.929 1.898 0 3.356-2.002 3.356-4.891 0-2.558-1.838-4.346-4.461-4.346-3.039 0-4.824 2.279-4.824 4.636 0 .918.354 1.902.795 2.437a.263.263 0 01.061.251c-.067.278-.216.877-.245.999-.038.157-.127.19-.293.115-1.331-.619-2.163-2.563-2.163-4.125 0-3.367 2.446-6.458 7.052-6.458 3.701 0 6.58 2.638 6.58 6.165 0 3.677-2.318 6.636-5.536 6.636-1.081 0-2.098-.561-2.446-1.226 0 0-.535 2.042-.665 2.542-.241.927-.891 2.086-1.326 2.794.999.308 2.061.474 3.154.474 5.465 0 9.908-4.443 9.908-9.908 0-5.464-4.443-9.907-9.908-9.907z"/>
</svg>
