<svg xmlns="http://www.w3.org/2000/svg" viewBox="727 277 16 16" fill="currentColor">
  <path d="M733.1669921875,285C732.7086181640625,285,732.3369750976562,285.3716125488281,732.3369750976562,285.8299865722656C732.3369750976562,286.28900146484375,732.708984375,286.6700134277344,733.1669921875,286.6610107421875C733.6144409179688,286.6454772949219,733.9691772460938,286.2782287597656,733.9691772460938,285.83050537109375C733.9691772460938,285.3827819824219,733.6144409179688,285.0155334472656,733.1669921875,285M735.010009765625,288.6470031738281C735.3250122070312,288.6470031738281,736.4130249023438,288.6090087890625,736.9860229492188,288.0360107421875C737.063720703125,287.94879150390625,737.063720703125,287.81719970703125,736.9860229492188,287.7300109863281C736.9458618164062,287.6885681152344,736.8906860351562,287.6651916503906,736.8330078125,287.6651916503906C736.7753295898438,287.6651916503906,736.7200927734375,287.6885681152344,736.6799926757812,287.7300109863281C736.3270263671875,288.0929870605469,735.5540161132812,288.2170104980469,735.010009765625,288.2170104980469C734.4650268554688,288.2170104980469,733.7020263671875,288.0929870605469,733.3389892578125,287.7300109863281C733.2988891601562,287.6885681152344,733.24365234375,287.6651916503906,733.1859741210938,287.6651916503906C733.1283569335938,287.6651916503906,733.0731201171875,287.6885681152344,733.0330200195312,287.7300109863281C732.9915771484375,287.7701110839844,732.9682006835938,287.8253173828125,732.9682006835938,287.88299560546875C732.9682006835938,287.940673828125,732.9915771484375,287.9958801269531,733.0330200195312,288.0360107421875C733.5969848632812,288.5989990234375,734.6849975585938,288.64599609375,735.010009765625,288.64599609375ZM736.0020141601562,285.8399963378906C736.0020141601562,286.2980041503906,736.375,286.6700134277344,736.8330078125,286.6700134277344C737.291015625,286.6700134277344,737.6630249023438,286.28900146484375,737.6630249023438,285.8399963378906C737.6412963867188,285.3974304199219,737.276123046875,285.04974365234375,736.8330078125,285.04974365234375C736.389892578125,285.04974365234375,736.0247192382812,285.3974304199219,736.0029907226562,285.8399963378906Z"/>
  <path d="M743,285C743,289.41827392578125,739.4182739257812,293,735,293C730.5817260742188,293,727,289.41827392578125,727,285C727,280.58172607421875,730.5817260742188,277,735,277C739.4182739257812,277,743,280.58172607421875,743,285M739.1719970703125,283.8349914550781C738.8569946289062,283.8349914550781,738.5700073242188,283.9590148925781,738.3599853515625,284.1600036621094C737.5590209960938,283.5870056152344,736.4600219726562,283.2149963378906,735.239013671875,283.1669921875L735.7730102539062,280.6659851074219L737.510986328125,281.0379943847656C737.5322875976562,281.4906921386719,737.9127807617188,281.8426208496094,738.3657836914062,281.82861328125C738.8187866210938,281.8145751953125,739.1767578125,281.43975830078125,739.1699829101562,280.9866027832031C739.1632080078125,280.533447265625,738.794189453125,280.16949462890625,738.3410034179688,280.16900634765625C738.0239868164062,280.17010498046875,737.7352905273438,280.3517150878906,737.5969848632812,280.6369934082031L735.6589965820312,280.22698974609375C735.6063232421875,280.2153015136719,735.5511474609375,280.22540283203125,735.5059814453125,280.2550048828125C735.4600219726562,280.28582763671875,735.4288940429688,280.3343505859375,735.4199829101562,280.3890075683594L734.8280029296875,283.177001953125C733.5880126953125,283.2149963378906,732.469970703125,283.5870056152344,731.6580200195312,284.16900634765625C731.447998046875,283.968994140625,731.1619873046875,283.8450012207031,730.8480224609375,283.8450012207031C730.2992553710938,283.84417724609375,729.8245849609375,284.2270812988281,729.709228515625,284.76361083984375C729.5939331054688,285.3001403808594,729.869384765625,285.8442687988281,730.3699951171875,286.0690002441406C730.3499755859375,286.1823425292969,730.34033203125,286.29998779296875,730.3410034179688,286.4219970703125C730.3410034179688,288.2170104980469,732.4320068359375,289.6780090332031,735.010009765625,289.6780090332031C737.5880126953125,289.6780090332031,739.677978515625,288.22698974609375,739.677978515625,286.4219970703125C739.677978515625,286.3080139160156,739.6680297851562,286.1839904785156,739.6489868164062,286.0690002441406C740.0499877929688,285.88800048828125,740.3369750976562,285.47698974609375,740.3369750976562,285C740.3369750976562,284.3500061035156,739.81201171875,283.8349914550781,739.1719970703125,283.8349914550781"/>
</svg>