<svg width="16" xmlns="http://www.w3.org/2000/svg" height="16" id="screenshot-7d81e634-6952-80e5-8007-0eea93c9c4c6" viewBox="669 77 16 16" style="-webkit-print-color-adjust::exact" xmlns:xlink="http://www.w3.org/1999/xlink" fill="none" version="1.1">
  <g id="shape-7d81e634-6952-80e5-8007-0eea93c9c4c6" style="fill:#000000" width="16" height="16" class="bi bi-skype" rx="0" ry="0">
    <g id="shape-7d81e634-6952-80e5-8007-0eea93c9c4c8" style="display:none">
      <g class="fills" id="fills-7d81e634-6952-80e5-8007-0eea93c9c4c8">
        <rect rx="0" ry="0" x="669" y="77" transform="matrix(1.000000, 0.000000, 0.000000, 1.000000, 0.000000, 0.000000)" width="16" height="16" fill="none" style="fill:none">
        </rect>
      </g>
    </g>
    <g id="shape-7d81e634-6952-80e5-8007-0eea93ca1f84">
      <g class="fills" id="fills-7d81e634-6952-80e5-8007-0eea93ca1f84">
        <path d="M673.6710205078125,77C674.551025390625,77,675.4039916992188,77.24700164794922,676.1389770507812,77.7020034790039C678.3623046875,77.46492767333984,680.5739135742188,78.24304962158203,682.1589965820312,79.81999969482422C683.5451049804688,81.20166015625,684.3247680664062,83.07789611816406,684.3259887695312,85.03500366210938C684.3259887695312,85.37966918945312,684.302001953125,85.72166442871094,684.2540283203125,86.06099700927734C684.6463012695312,86.7573013305664,684.8529052734375,87.54279327392578,684.85400390625,88.34200286865234C684.8545532226562,89.57869720458984,684.3613891601562,90.76445007324219,683.4840087890625,91.63600158691406C682.6071166992188,92.5108413696289,681.4186401367188,93.00149536132812,680.1799926757812,93C679.3400268554688,93,678.52197265625,92.77400207519531,677.8099975585938,92.35600280761719C675.5570678710938,92.62542724609375,673.3046264648438,91.84921264648438,671.6959838867188,90.2490005493164C670.3101196289062,88.86758422851562,669.530517578125,86.99176025390625,669.5289916992188,85.03500366210938C669.5289916992188,84.67166900634766,669.5556640625,84.31133270263672,669.6090087890625,83.9540023803711C668.5718383789062,82.13265991210938,668.8832397460938,79.84233856201172,670.3690185546875,78.36399841308594C671.2457275390625,77.4908218383789,672.4326171875,77.00039672851562,673.6699829101562,77ZM674.1179809570312,84.01000213623047C674.2979736328125,84.31900024414062,674.5479736328125,84.58200073242188,674.8469848632812,84.77899932861328C675.2428588867188,85.03861236572266,675.6640014648438,85.25739288330078,676.10400390625,85.43199920654297C676.5953369140625,85.6373291015625,676.9769897460938,85.8116683959961,677.2490234375,85.95500183105469C677.47802734375,86.06700134277344,677.6859741210938,86.21900177001953,677.864013671875,86.40299987792969C677.9990234375,86.54499816894531,678.073974609375,86.73400115966797,678.073974609375,86.93099975585938C678.0857543945312,87.21197509765625,677.9609375,87.48130798339844,677.739013671875,87.65399932861328C677.447998046875,87.8499984741211,677.0989990234375,87.94300079345703,676.7490234375,87.91799926757812C676.38916015625,87.92259979248047,676.0322875976562,87.85244750976562,675.7009887695312,87.71199798583984C675.5214233398438,87.63243103027344,675.3440551757812,87.54806518554688,675.1690063476562,87.45899963378906C674.9878540039062,87.36346435546875,674.7867431640625,87.31207275390625,674.5819702148438,87.30899810791016C674.398681640625,87.30168914794922,674.219482421875,87.3646469116211,674.0809936523438,87.48500061035156C673.9472045898438,87.61219024658203,673.8759155273438,87.79167175292969,673.885986328125,87.97599792480469C673.882080078125,88.14842224121094,673.9340209960938,88.31748962402344,674.0339965820312,88.45800018310547C674.1549072265625,88.6113510131836,674.3114624023438,88.73286437988281,674.489990234375,88.81199645996094C675.1868896484375,89.11470031738281,675.9426879882812,89.25785064697266,676.7020263671875,89.23100280761719C677.2548828125,89.2409896850586,677.8049926757812,89.1512222290039,678.3259887695312,88.96600341796875C678.7577514648438,88.81253814697266,679.1338500976562,88.53362274169922,679.406005859375,88.16500091552734C679.6729736328125,87.7750015258789,679.8079833984375,87.30999755859375,679.7919921875,86.83799743652344C679.8018798828125,86.45233917236328,679.7053833007812,86.07140350341797,679.5130004882812,85.73699951171875C679.3179931640625,85.41867065429688,679.0542602539062,85.14805603027344,678.7410278320312,84.94499969482422C678.345458984375,84.68827819824219,677.9249877929688,84.47218322753906,677.4860229492188,84.30000305175781C677.4392700195312,84.27691650390625,677.3907470703125,84.25752258300781,677.3410034179688,84.24199676513672C676.9988403320312,84.10342407226562,676.6610107421875,83.95435333251953,676.3280029296875,83.79499816894531C676.1255493164062,83.70062255859375,675.9424438476562,83.56938934326172,675.7880249023438,83.40799713134766C675.6581420898438,83.27090454101562,675.58642578125,83.08882904052734,675.5880126953125,82.9000015258789C675.5738525390625,82.60659790039062,675.7216796875,82.32904052734375,675.9730224609375,82.177001953125C676.2650146484375,82.00289916992188,676.6012573242188,81.91710662841797,676.9409790039062,81.93000030517578C677.2009887695312,81.927001953125,677.4609985351562,81.95999908447266,677.7130126953125,82.0260009765625C677.9876708984375,82.10533142089844,678.2550048828125,82.2030029296875,678.5150146484375,82.31900024414062C678.6199951171875,82.36799621582031,678.7349853515625,82.39399719238281,678.8510131835938,82.3949966430664C679.022216796875,82.39921569824219,679.18701171875,82.330078125,679.3040161132812,82.20500183105469C679.4263916015625,82.06947326660156,679.490966796875,81.8914794921875,679.4840087890625,81.70899963378906C679.4866943359375,81.53500366210938,679.4263305664062,81.36590576171875,679.3140258789062,81.23300170898438C679.1594848632812,81.07243347167969,678.9688720703125,80.95106506347656,678.7579956054688,80.87899780273438C678.5286254882812,80.79476928710938,678.2914428710938,80.73347473144531,678.0499877929688,80.69599914550781C677.712158203125,80.64089965820312,677.3702392578125,80.61479949951172,677.0280151367188,80.61799621582031C676.5048828125,80.61406707763672,675.985107421875,80.70137786865234,675.4920043945312,80.8759994506836C675.0380859375,81.02859497070312,674.6328735351562,81.29917907714844,674.3179931640625,81.66000366210938C674.013916015625,82.0185546875,673.8536376953125,82.47710418701172,673.8679809570312,82.9469985961914C673.8579711914062,83.31700134277344,673.9439697265625,83.68299865722656,674.1179809570312,84.01000213623047" style="fill:#000000">
        </path>
      </g>
    </g>
  </g>
</svg>