<svg width="16" xmlns="http://www.w3.org/2000/svg" height="16" id="screenshot-7d81e634-6952-80e5-8007-0ee9514c10cb" viewBox="626 347 16 16" style="-webkit-print-color-adjust::exact" xmlns:xlink="http://www.w3.org/1999/xlink" fill="none" version="1.1">
  <g id="shape-7d81e634-6952-80e5-8007-0ee9514c10cb" style="fill:#000000" width="16" height="16" class="bi bi-slack" rx="0" ry="0">
    <g id="shape-7d81e634-6952-80e5-8007-0ee9514c7ca0" style="display:none">
      <g class="fills" id="fills-7d81e634-6952-80e5-8007-0ee9514c7ca0">
        <rect rx="0" ry="0" x="626" y="347" transform="matrix(1.000000, 0.000000, 0.000000, 1.000000, 0.000000, 0.000000)" width="16" height="16" fill="none" style="fill:none">
        </rect>
      </g>
    </g>
    <g id="shape-7d81e634-6952-80e5-8007-0ee9514c7ca1">
      <g class="fills" id="fills-7d81e634-6952-80e5-8007-0ee9514c7ca1">
        <path d="M629.3619995117188,357.1099853515625C629.3619995117188,358.0360107421875,628.6060180664062,358.791015625,627.6810302734375,358.791015625C626.7559814453125,358.791015625,626,358.0360107421875,626,357.1109924316406C626,356.1860046386719,626.7559814453125,355.42999267578125,627.6799926757812,355.42999267578125L629.3619995117188,355.42999267578125ZM630.2080078125,357.1099853515625C630.2080078125,356.1860046386719,630.9639892578125,355.42999267578125,631.8889770507812,355.42999267578125C632.8140258789062,355.42999267578125,633.5700073242188,356.1860046386719,633.5700073242188,357.1099853515625L633.5700073242188,361.32000732421875C633.5700073242188,362.2439880371094,632.8140258789062,363,631.8900146484375,363C630.9625244140625,362.99835205078125,630.2107543945312,362.2474670410156,630.2080078125,361.32000732421875ZM631.8900146484375,350.36199951171875C630.9639892578125,350.36199951171875,630.2080078125,349.6059875488281,630.2080078125,348.6809997558594C630.2080078125,347.7560119628906,630.9639892578125,347,631.8900146484375,347C632.8159790039062,347,633.5700073242188,347.7560119628906,633.5700073242188,348.67999267578125L633.5700073242188,350.36199951171875ZM631.8900146484375,351.2080078125C632.8140258789062,351.2080078125,633.5700073242188,351.9639892578125,633.5700073242188,352.8890075683594C633.5700073242188,353.8139953613281,632.8140258789062,354.57000732421875,631.8900146484375,354.57000732421875L627.6799926757812,354.57000732421875C626.7570190429688,354.57000732421875,626,353.8139953613281,626,352.8900146484375C626,351.9639892578125,626.7559814453125,351.2080078125,627.6799926757812,351.2080078125ZM638.6389770507812,352.8900146484375C638.6389770507812,351.9639892578125,639.3939819335938,351.2080078125,640.3189697265625,351.2080078125C641.2440185546875,351.2080078125,642,351.9639892578125,642,352.8890075683594C642,353.8139953613281,641.2440185546875,354.57000732421875,640.3200073242188,354.57000732421875L638.6389770507812,354.57000732421875ZM637.791015625,352.8900146484375C637.791015625,353.8139953613281,637.0360107421875,354.57000732421875,636.1110229492188,354.57000732421875C635.1838989257812,354.56781005859375,634.4327392578125,353.81707763671875,634.4299926757812,352.8900146484375L634.4299926757812,348.67999267578125C634.4299926757812,347.7569885253906,635.1859741210938,347,636.1099853515625,347C637.0360107421875,347,637.791015625,347.7560119628906,637.791015625,348.67999267578125ZM636.1099853515625,359.63800048828125C637.0360107421875,359.63800048828125,637.7919921875,360.3940124511719,637.7919921875,361.3190002441406C637.7919921875,362.2439880371094,637.0360107421875,363,636.1099853515625,363C635.1840209960938,363,634.4290161132812,362.2439880371094,634.4290161132812,361.32000732421875L634.4290161132812,359.63800048828125L636.1090087890625,359.63800048828125ZM636.1099853515625,358.791015625C635.1859741210938,358.791015625,634.4299926757812,358.0360107421875,634.4299926757812,357.1109924316406C634.4299926757812,356.1860046386719,635.1859741210938,355.42999267578125,636.1099853515625,355.42999267578125L640.3200073242188,355.42999267578125C641.2440185546875,355.42999267578125,642,356.1860046386719,642,357.1099853515625C642,358.0360107421875,641.2440185546875,358.791015625,640.3200073242188,358.791015625Z" style="fill:#000000">
        </path>
      </g>
    </g>
  </g>
</svg>