<svg width="16" xmlns="http://www.w3.org/2000/svg" height="16" id="screenshot-7d81e634-6952-80e5-8007-0ee9b0385e09" viewBox="858 412 16 16" style="-webkit-print-color-adjust::exact" xmlns:xlink="http://www.w3.org/1999/xlink" fill="none" version="1.1">
  <g id="shape-7d81e634-6952-80e5-8007-0ee9b0385e09" style="fill:#000000" width="16" height="16" class="bi bi-snapchat" rx="0" ry="0">
    <g id="shape-7d81e634-6952-80e5-8007-0ee9b0385e0b" style="display:none">
      <g class="fills" id="fills-7d81e634-6952-80e5-8007-0ee9b0385e0b">
        <rect rx="0" ry="0" x="858" y="412" transform="matrix(1.000000, 0.000000, 0.000000, 1.000000, 0.000000, 0.000000)" width="16" height="16" fill="none" style="fill:none">
        </rect>
      </g>
    </g>
    <g id="shape-7d81e634-6952-80e5-8007-0ee9b038fdcb">
      <g class="fills" id="fills-7d81e634-6952-80e5-8007-0ee9b038fdcb">
        <path d="M873.9429931640625,423.5260009765625C873.8319702148438,423.2229919433594,873.6199951171875,423.0610046386719,873.3790283203125,422.927001953125C873.3395385742188,422.90283203125,873.2984619140625,422.8814697265625,873.2559814453125,422.8630065917969L873.0369873046875,422.75201416015625C872.2849731445312,422.3529968261719,871.697998046875,421.8500061035156,871.291015625,421.2539978027344C871.17529296875,421.0863342285156,871.0748901367188,420.90863037109375,870.9910278320312,420.7229919433594C870.9569702148438,420.62298583984375,870.958984375,420.5669860839844,870.9829711914062,420.5159912109375C871.0070190429688,420.47552490234375,871.040283203125,420.4412536621094,871.0800170898438,420.416015625C871.208984375,420.3299865722656,871.3419799804688,420.2430114746094,871.4320068359375,420.18499755859375C871.593994140625,420.08099365234375,871.7210083007812,419.99798583984375,871.802978515625,419.94000244140625C872.1119995117188,419.7239990234375,872.3280029296875,419.4939880371094,872.4630126953125,419.2380065917969C872.6529541015625,418.87957763671875,872.6781616210938,418.4563903808594,872.531982421875,418.0780029296875C872.3270263671875,417.5400085449219,871.8189697265625,417.20599365234375,871.2030029296875,417.20599365234375C871.0384521484375,417.2052917480469,870.8745727539062,417.2271728515625,870.7160034179688,417.27099609375C870.7219848632812,416.90301513671875,870.7139892578125,416.5140075683594,870.6810302734375,416.1319885253906C870.5650024414062,414.7879943847656,870.093994140625,414.0840148925781,869.60400390625,413.5220031738281C869.289794921875,413.1702575683594,868.9198608398438,412.87261962890625,868.5089721679688,412.6409912109375C867.7639770507812,412.21600341796875,866.9199829101562,412,865.9990234375,412C865.0780029296875,412,864.239013671875,412.21600341796875,863.4940185546875,412.6409912109375C863.0819702148438,412.87298583984375,862.7119750976562,413.1709899902344,862.39697265625,413.52398681640625C861.906982421875,414.08599853515625,861.43701171875,414.7909851074219,861.3200073242188,416.1340026855469C861.2869873046875,416.5159912109375,861.280029296875,416.906005859375,861.2839965820312,417.2720031738281C861.1254272460938,417.2281799316406,860.9615478515625,417.206298828125,860.7969970703125,417.2070007324219C860.1820068359375,417.2070007324219,859.6729736328125,417.5419921875,859.468994140625,418.0799865722656C859.3219604492188,418.4584045410156,859.3463745117188,418.88201904296875,859.5360107421875,419.2409973144531C859.6719970703125,419.49700927734375,859.8880004882812,419.72698974609375,860.1959838867188,419.9419860839844C860.2780151367188,420,860.406005859375,420.0820007324219,860.5670166015625,420.18798828125L860.906005859375,420.40899658203125C860.9491577148438,420.4382019042969,860.9862060546875,420.4755859375,861.0150146484375,420.5190124511719C861.041015625,420.5719909667969,861.0419921875,420.6289978027344,861.0029907226562,420.7359924316406C860.9201049804688,420.91766357421875,860.8214111328125,421.0916748046875,860.7080078125,421.2560119628906C860.3099975585938,421.8389892578125,859.739990234375,422.3330078125,859.0120239257812,422.7279968261719C858.6270141601562,422.9320068359375,858.2260131835938,423.0679931640625,858.0570068359375,423.52801513671875C857.9290161132812,423.8760070800781,858.0130004882812,424.27099609375,858.3369750976562,424.6029968261719C858.4569702148438,424.72900390625,858.5933227539062,424.83233642578125,858.7459716796875,424.9129943847656C859.0617065429688,425.0867919921875,859.3975219726562,425.22113037109375,859.7459716796875,425.31298828125C859.8176879882812,425.33209228515625,859.8858642578125,425.36248779296875,859.947998046875,425.40301513671875C860.0659790039062,425.5069885253906,860.0499877929688,425.6629943847656,860.2069702148438,425.8909912109375C860.2869873046875,426.0096740722656,860.3856811523438,426.10968017578125,860.5029907226562,426.1910095214844C860.8330078125,426.4200134277344,861.2039794921875,426.4339904785156,861.5980224609375,426.4490051269531C861.9530029296875,426.4630126953125,862.3560180664062,426.47900390625,862.8150024414062,426.6289978027344C863.0050048828125,426.6929931640625,863.2039794921875,426.81500244140625,863.4329833984375,426.9570007324219C863.9829711914062,427.2950134277344,864.7379760742188,427.7590026855469,865.9990234375,427.7590026855469C867.260986328125,427.7590026855469,868.0189819335938,427.2929992675781,868.5750122070312,426.9530029296875C868.802001953125,426.81298828125,868.9990234375,426.6929931640625,869.1840209960938,426.6319885253906C869.6439819335938,426.4800109863281,870.0469970703125,426.4639892578125,870.4019775390625,426.45098876953125C870.7949829101562,426.4360046386719,871.166015625,426.4209899902344,871.4970092773438,426.1929931640625C871.634765625,426.09661865234375,871.74951171875,425.970947265625,871.8330078125,425.82501220703125C871.947021484375,425.63299560546875,871.9429931640625,425.49798583984375,872.0499877929688,425.4049987792969C872.1077270507812,425.3651123046875,872.1720581054688,425.3356628417969,872.239990234375,425.3179931640625C872.5931396484375,425.2249755859375,872.9336547851562,425.0893249511719,873.2540283203125,424.91400146484375C873.4140014648438,424.8269958496094,873.5599975585938,424.7139892578125,873.6829833984375,424.5780029296875L873.68701171875,424.572998046875C873.9910278320312,424.24798583984375,874.0670166015625,423.864013671875,873.9429931640625,423.5260009765625M872.822021484375,424.12799072265625C872.1380004882812,424.5060119628906,871.6829833984375,424.4649963378906,871.3289794921875,424.6929931640625C871.0289916992188,424.885986328125,871.2069702148438,425.3030090332031,870.989013671875,425.4530029296875C870.719970703125,425.6390075683594,869.927978515625,425.4410095214844,868.9039916992188,425.77899169921875C868.0590209960938,426.0580139160156,867.52001953125,426.8609924316406,866.0009765625,426.8609924316406C864.4819946289062,426.8609924316406,863.9559936523438,426.05999755859375,863.0969848632812,425.7770080566406C862.0750122070312,425.4389953613281,861.281005859375,425.6369934082031,861.0130004882812,425.4519958496094C860.7949829101562,425.302001953125,860.9719848632812,424.8840026855469,860.6719970703125,424.6910095214844C860.3179931640625,424.4630126953125,859.8629760742188,424.5039978027344,859.1799926757812,424.12799072265625C858.7440185546875,423.88800048828125,858.9910278320312,423.7380065917969,859.135986328125,423.6679992675781C861.614013671875,422.468994140625,862.0089721679688,420.6180114746094,862.0260009765625,420.4800109863281C862.0479736328125,420.3139953613281,862.0709838867188,420.1830139160156,861.8880004882812,420.0140075683594C861.7109985351562,419.8500061035156,860.926025390625,419.364013671875,860.7080078125,419.2120056152344C860.3480224609375,418.9599914550781,860.18798828125,418.7090148925781,860.3060302734375,418.3999938964844C860.3880004882812,418.1860046386719,860.5869750976562,418.1050109863281,860.7960205078125,418.1050109863281C860.8622436523438,418.1058044433594,860.92822265625,418.1131591796875,860.9929809570312,418.12701416015625C861.3889770507812,418.2130126953125,861.7730102539062,418.4119873046875,861.9949951171875,418.4649963378906C862.0216674804688,418.4716796875,862.0490112304688,418.475341796875,862.0770263671875,418.47601318359375C862.1950073242188,418.47601318359375,862.2369995117188,418.4159851074219,862.22900390625,418.281005859375C862.2030029296875,417.8479919433594,862.1420288085938,417.0039978027344,862.2100219726562,416.2149963378906C862.3040161132812,415.1310119628906,862.6539916992188,414.5929870605469,863.0689697265625,414.1180114746094C863.2689819335938,413.8890075683594,864.2059936523438,412.89801025390625,865.9990234375,412.89801025390625C867.791015625,412.89801025390625,868.7310180664062,413.885009765625,868.9299926757812,414.1130065917969C869.3460083007812,414.5880126953125,869.6959838867188,415.1260070800781,869.7890014648438,416.21099853515625C869.8569946289062,416.9989929199219,869.7979736328125,417.8429870605469,869.77001953125,418.2760009765625C869.760009765625,418.4179992675781,869.8040161132812,418.47100830078125,869.9219970703125,418.47100830078125C869.9495849609375,418.47052001953125,869.9771118164062,418.4671630859375,870.0040283203125,418.46099853515625C870.2260131835938,418.4070129394531,870.6110229492188,418.2080078125,871.0059814453125,418.12298583984375C871.0707397460938,418.10882568359375,871.13671875,418.1011047363281,871.2030029296875,418.1000061035156C871.4130249023438,418.1000061035156,871.6119995117188,418.1820068359375,871.6929931640625,418.3949890136719C871.8099975585938,418.7040100097656,871.6530151367188,418.9549865722656,871.2919921875,419.2070007324219C871.073974609375,419.3590087890625,870.2890014648438,419.8450012207031,870.1119995117188,420.0090026855469C869.927978515625,420.1780090332031,869.9520263671875,420.3089904785156,869.9730224609375,420.4750061035156C869.9910278320312,420.614990234375,870.385986328125,422.46600341796875,872.8629760742188,423.66400146484375C873.010009765625,423.73699951171875,873.2570190429688,423.885986328125,872.822021484375,424.12799072265625" style="fill:#000000">
        </path>
      </g>
    </g>
  </g>
</svg>