<svg width="16" xmlns="http://www.w3.org/2000/svg" height="16.003" id="screenshot-7d81e634-6952-80e5-8007-0ee918ee7fd3" viewBox="652 300.997 16 16.003" style="-webkit-print-color-adjust::exact" xmlns:xlink="http://www.w3.org/1999/xlink" fill="none" version="1.1">
  <g id="shape-7d81e634-6952-80e5-8007-0ee918ee7fd3" style="fill:#000000" width="16" height="16" class="bi bi-microsoft-teams" rx="0" ry="0">
    <g id="shape-7d81e634-6952-80e5-8007-0ee918eeb6b0" style="display:none">
      <g class="fills" id="fills-7d81e634-6952-80e5-8007-0ee918eeb6b0">
        <rect rx="0" ry="0" x="652" y="301" transform="matrix(1.000000, 0.000000, 0.000000, 1.000000, 0.000000, 0.000000)" width="16" height="16" fill="none" style="fill:none">
        </rect>
      </g>
    </g>
    <g id="shape-7d81e634-6952-80e5-8007-0ee918eed1d7">
      <g class="fills" id="fills-7d81e634-6952-80e5-8007-0ee918eed1d7">
        <path d="M661.1859741210938,305.7969970703125C662.4351196289062,305.5655212402344,663.2925415039062,304.4075927734375,663.149658203125,303.1452941894531C663.0067749023438,301.88299560546875,661.9121704101562,300.9460754394531,660.6429443359375,300.9996643066406C659.3737182617188,301.0532531738281,658.3619384765625,302.07916259765625,658.3259887695312,303.3489990234375L659.5040283203125,303.3489990234375C660.4329833984375,303.3489990234375,661.1859741210938,304.10198974609375,661.1859741210938,305.031005859375ZM656.8909912109375,313.5350036621094L659.5040283203125,313.5350036621094C660.4329833984375,313.5350036621094,661.1859741210938,312.7820129394531,661.1859741210938,311.8529968261719L661.1859741210938,306.5799865722656L663.968994140625,306.5799865722656C664.3548583984375,306.5898132324219,664.6599731445312,306.9101257324219,664.6510009765625,307.2959899902344L664.6510009765625,311.5899963378906C664.7046508789062,313.9051208496094,662.873046875,315.82623291015625,660.5579833984375,315.88299560546875C658.9400024414062,315.8429870605469,657.5579833984375,314.89300537109375,656.8909912109375,313.5329895019531ZM667.6279907226562,304.1629943847656C667.6279907226562,305.0877990722656,666.8782958984375,305.8374938964844,665.9534912109375,305.8374938964844C665.0286865234375,305.8374938964844,664.2789916992188,305.0877990722656,664.2789916992188,304.1629943847656C664.2789916992188,303.2381896972656,665.0286865234375,302.4884948730469,665.9534912109375,302.4884948730469C666.8782958984375,302.4884948730469,667.6279907226562,303.2381896972656,667.6279907226562,304.1629943847656M665.3900146484375,313.6510009765625L665.27001953125,313.64898681640625C665.5368041992188,312.9921875,665.6664428710938,312.2877502441406,665.6510009765625,311.5790100097656L665.6510009765625,307.3059997558594C665.6548461914062,307.0562438964844,665.6036376953125,306.8087158203125,665.5009765625,306.58099365234375L667.2930297851562,306.58099365234375C667.6829833984375,306.58099365234375,668,306.89801025390625,668,307.2879943847656L668,311.0530090332031C667.9989013671875,312.48736572265625,666.8363647460938,313.64990234375,665.4019775390625,313.6510009765625Z" style="fill:#000000">
        </path>
      </g>
    </g>
    <g id="shape-7d81e634-6952-80e5-8007-0ee918ef3bee">
      <g class="fills" id="fills-7d81e634-6952-80e5-8007-0ee918ef3bee">
        <path d="M652.6820068359375,304.3489990234375L659.5040283203125,304.3489990234375C659.8809814453125,304.3489990234375,660.1859741210938,304.65399169921875,660.1859741210938,305.031005859375L660.1859741210938,311.8529968261719C660.1865234375,312.0340270996094,660.1148681640625,312.20782470703125,659.98681640625,312.3358459472656C659.8588256835938,312.4638366699219,659.68505859375,312.5355224609375,659.5040283203125,312.5350036621094L652.6820068359375,312.5350036621094C652.5009765625,312.5355224609375,652.3272094726562,312.4638366699219,652.1991577148438,312.3358459472656C652.0711669921875,312.20782470703125,651.9994506835938,312.0340270996094,652,311.8529968261719L652,305.0299987792969C652,304.65301513671875,652.3049926757812,304.3479919433594,652.6820068359375,304.3479919433594ZM657.8880004882812,306.94500732421875L657.8880004882812,306.2250061035156L654.2979736328125,306.2250061035156L654.2979736328125,306.94500732421875L655.655029296875,306.94500732421875L655.655029296875,310.6600036621094L656.5250244140625,310.6600036621094L656.5250244140625,306.94500732421875Z" style="fill:#000000">
        </path>
      </g>
    </g>
  </g>
</svg>