<svg width="16" xmlns="http://www.w3.org/2000/svg" height="16" id="screenshot-7d81e634-6952-80e5-8007-0ee8bbccc5fe" viewBox="802 541 16 16" style="-webkit-print-color-adjust::exact" xmlns:xlink="http://www.w3.org/1999/xlink" fill="none" version="1.1">
  <g id="shape-7d81e634-6952-80e5-8007-0ee8bbccc5fe" style="fill:#000000" width="16" height="16" class="bi bi-telegram" rx="0" ry="0">
    <g id="shape-7d81e634-6952-80e5-8007-0ee8bbcd5fee" style="display:none">
      <g class="fills" id="fills-7d81e634-6952-80e5-8007-0ee8bbcd5fee">
        <rect rx="0" ry="0" x="802" y="541" transform="matrix(1.000000, 0.000000, 0.000000, 1.000000, 0.000000, 0.000000)" width="16" height="16" fill="none" style="fill:none">
        </rect>
      </g>
    </g>
    <g id="shape-7d81e634-6952-80e5-8007-0ee8bbcdd314">
      <g class="fills" id="fills-7d81e634-6952-80e5-8007-0ee8bbcdd314">
        <path d="M818,549C818,553.4182739257812,814.4182739257812,557,810,557C805.5817260742188,557,802,553.4182739257812,802,549C802,544.5817260742188,805.5817260742188,541,810,541C814.4182739257812,541,818,544.5817260742188,818,549M810.2869873046875,546.906005859375C809.5083618164062,547.22998046875,807.9530029296875,547.9000244140625,805.6209716796875,548.916015625C805.2429809570312,549.0659790039062,805.044677734375,549.2133178710938,805.0260009765625,549.3579711914062C804.9959716796875,549.6010131835938,805.301025390625,549.697021484375,805.7160034179688,549.8280029296875L805.8909912109375,549.8829956054688C806.2990112304688,550.0159912109375,806.8489990234375,550.1710205078125,807.1339721679688,550.177001953125C807.3939819335938,550.1836547851562,807.683349609375,550.0770263671875,808.0020141601562,549.8569946289062C810.1813354492188,548.3863525390625,811.3060302734375,547.6430053710938,811.3759765625,547.6270141601562C811.426025390625,547.614990234375,811.4959716796875,547.6010131835938,811.5419921875,547.6430053710938C811.5880126953125,547.6849975585938,811.583984375,547.7630004882812,811.5789794921875,547.7839965820312C811.5490112304688,547.9130249023438,810.3519897460938,549.0250244140625,809.7329711914062,549.6010131835938C809.5399780273438,549.781005859375,809.4030151367188,549.9080200195312,809.375,549.93701171875C809.3133544921875,550.0000610351562,809.2506713867188,550.06201171875,809.18701171875,550.1229858398438C808.8070068359375,550.489013671875,808.5230102539062,550.7630004882812,809.2020263671875,551.2109985351562C809.5289916992188,551.427001953125,809.791015625,551.60400390625,810.052001953125,551.781982421875C810.3359985351562,551.9760131835938,810.6199951171875,552.1690063476562,810.9879760742188,552.4110107421875C811.0813598632812,552.4723510742188,811.1713256835938,552.53466796875,811.2579956054688,552.5980224609375C811.5889892578125,552.833984375,811.8880004882812,553.0460205078125,812.2550048828125,553.0120239257812C812.468994140625,552.9920043945312,812.6900024414062,552.7919921875,812.802001953125,552.1920166015625C813.0670166015625,550.7750244140625,813.5880126953125,547.7059936523438,813.7080078125,546.4409790039062C813.7155151367188,546.3358154296875,813.711181640625,546.2301635742188,813.6950073242188,546.1259765625C813.685302734375,546.0419921875,813.6446533203125,545.9646606445312,813.5809936523438,545.9089965820312C813.4898681640625,545.846435546875,813.3815307617188,545.8139038085938,813.27099609375,545.8159790039062C812.9710083007812,545.8209838867188,812.5079956054688,545.9819946289062,810.2869873046875,546.906005859375" style="fill:#000000">
        </path>
      </g>
    </g>
  </g>
</svg>