<svg width="16" xmlns="http://www.w3.org/2000/svg" height="16" id="screenshot-7d81e634-6952-80e5-8007-0ee9e5c0543b" viewBox="546 343 16 16" style="-webkit-print-color-adjust::exact" xmlns:xlink="http://www.w3.org/1999/xlink" fill="none" version="1.1">
  <g id="shape-7d81e634-6952-80e5-8007-0ee9e5c0543b" style="fill:#000000" width="16" height="16" class="bi bi-threads" rx="0" ry="0">
    <g id="shape-7d81e634-6952-80e5-8007-0ee9e5c0543d" style="display:none">
      <g class="fills" id="fills-7d81e634-6952-80e5-8007-0ee9e5c0543d">
        <rect rx="0" ry="0" x="546" y="343" transform="matrix(1.000000, 0.000000, 0.000000, 1.000000, 0.000000, 0.000000)" width="16" height="16" fill="none" style="fill:none">
        </rect>
      </g>
    </g>
    <g id="shape-7d81e634-6952-80e5-8007-0ee9e5c09702">
      <g class="fills" id="fills-7d81e634-6952-80e5-8007-0ee9e5c09702">
        <path d="M552.3209838867188,349.0159912109375C552.051025390625,348.83599853515625,551.155029296875,348.2139892578125,551.155029296875,348.2139892578125C551.9110107421875,347.13299560546875,552.9080200195312,346.7120056152344,554.2869873046875,346.7120056152344C555.2620239257812,346.7120056152344,556.0900268554688,347.03900146484375,556.6810302734375,347.6600036621094C557.27197265625,348.281005859375,557.6090087890625,349.16900634765625,557.6859741210938,350.3039855957031C558.0139770507812,350.4419860839844,558.315673828125,350.60333251953125,558.5910034179688,350.7879943847656C559.7000122070312,351.5329895019531,560.3099975585938,352.64801025390625,560.3099975585938,353.92498779296875C560.3099975585938,356.6409912109375,558.083984375,359,554.0540161132812,359C550.593994140625,359,547,356.98699951171875,547,350.9939880371094C547,345.03399658203125,550.4819946289062,343,554.0440063476562,343C555.6900024414062,343,559.5499877929688,343.2430114746094,561,348.0360107421875L559.6400146484375,348.3890075683594C558.5159912109375,344.9739990234375,556.1630249023438,344.42999267578125,554.0059814453125,344.42999267578125C550.4409790039062,344.42999267578125,548.4240112304688,346.60101318359375,548.4240112304688,351.2200012207031C548.4240112304688,355.3630065917969,550.677978515625,357.56298828125,554.0540161132812,357.56298828125C556.8309936523438,357.56298828125,558.9010009765625,356.1199951171875,558.9010009765625,354.0069885253906C558.9010009765625,352.5690002441406,557.6929931640625,351.8800048828125,557.6309814453125,351.8800048828125C557.39501953125,353.114013671875,556.7630004882812,355.19000244140625,553.9869995117188,355.19000244140625C552.3690185546875,355.19000244140625,550.9739990234375,354.0719909667969,550.9739990234375,352.6080017089844C550.9739990234375,350.51800537109375,552.9580078125,349.760986328125,554.5239868164062,349.760986328125C555.1099853515625,349.760986328125,555.8179931640625,349.8009948730469,556.18701171875,349.875C556.18701171875,349.2380065917969,555.64697265625,348.1470031738281,554.2869873046875,348.1470031738281C553.0369873046875,348.1470031738281,552.7210083007812,348.552001953125,552.3200073242188,349.0150146484375ZM554.7160034179688,351.19000244140625C552.676025390625,351.19000244140625,552.4119873046875,352.05999755859375,552.4119873046875,352.6059875488281C552.4119873046875,353.4840087890625,553.4550170898438,353.77398681640625,554.0120239257812,353.77398681640625C555.031982421875,353.77398681640625,556.0789794921875,353.49200439453125,556.2440185546875,351.35101318359375C555.7432861328125,351.23419189453125,555.2300415039062,351.18011474609375,554.7160034179688,351.19000244140625" style="fill:#000000">
        </path>
      </g>
    </g>
  </g>
</svg>